<svg id="Layer_1" data-name="Layer 1" xmlns="http://www.w3.org/2000/svg" viewBox="0 0 275.7 173.2"><defs><style>.cls-1{fill:#fdfdfd;}.cls-2{fill:#fff;}.cls-3{fill:#1e3f66;}.cls-35,.cls-4{fill:#72a6c5;}.cls-5{fill:#f1f1f1;}.cls-6{fill:#4a4a4a;}.cls-7{fill:#141414;}.cls-8{fill:#3f3f3f;}.cls-9{fill:#9b9b9b;}.cls-10{fill:#b4b4b4;}.cls-11{fill:#a2a2a2;}.cls-12{fill:#f8f8f8;}.cls-13{fill:#3a3b3a;}.cls-14{fill:#6f6f6e;}.cls-15{fill:#dfdfde;}.cls-16{fill:#eaeaea;}.cls-17{fill:#dededd;}.cls-18{fill:#efefee;}.cls-19{fill:#fefefe;}.cls-20{fill:#f9f9f8;}.cls-21{fill:#f6f5f5;}.cls-22{fill:#fcfcfc;}.cls-23{fill:#dadad9;}.cls-24{fill:#fefdfd;}.cls-25{fill:#f6f6f6;}.cls-26{fill:#f0efef;}.cls-27{fill:#373837;}.cls-28{fill:#f4f4f4;}.cls-29{fill:#fbfcfc;}.cls-30{fill:#f2f1f1;}.cls-31{fill:#dcdcdc;}.cls-32{fill:#d6d6d5;}.cls-33{fill:#d4d3d3;}.cls-34{fill:#504f4f;}.cls-35{stroke:#1f4067;stroke-width:0.9px;fill-rule:evenodd;}</style></defs><path class="cls-1" d="M235.42,204.64c0,.88-.44,1.65-1.27,1.73-1.6.16-2.06,1.57-3.07,2.38-1.17,1-1.83,2.5-3.6,2.85a13.86,13.86,0,0,0-3.2,1.64c-.45.24-.37.63-.38,1h-1.41c-.19-.26-.5-.33-.76-.5-.8-.51-1.43-.44-1.83.5h-1.64c-.24-.68-.47-.45-.71,0h-1.17a1.57,1.57,0,0,0-1.19-.65,1.39,1.39,0,0,1-1.43-.81c-.27-.57-.58-.43-.81.05s-.32,1-.57,1.41h-.7a1.42,1.42,0,0,0-1.88,0h-3.53c-.31-.2-.63-.62-.94,0h-1.88c.46-.72.63-1.61,1.62-2,.54-.21.29-1,.14-1.49s0-.91.61-1c.11,0,.3,0,.34,0,.66-1.18,1.71-.35,2.57-.5.15,0,.35.05.45,0,1.81-1.19,4-1,6-1.86.6-.27,1.19-.56,1.78-.86,3.62-1.81,7.49-3,11.19-4.68a5.42,5.42,0,0,0,2.75-3,.72.72,0,0,0-.52-1c-.26-.09-.57-.09-.51-.48a.72.72,0,0,1,.56-.54,3.19,3.19,0,0,1,.79-.17c1.65-.15,1.65-.14,1.65-1.82,0-5.63,0-11.26,0-16.9a6.11,6.11,0,0,1,.39-3.2,1.86,1.86,0,0,0,0-1.69c-1.7-1.63,0-3.44-.4-5.1a.31.31,0,0,1,.36.14,19,19,0,0,1,.67,5.61c.17,3.81.53,7.61.48,11.43,0,3.19,0,6.39,0,9.59a2.26,2.26,0,0,1-1.19,2.34c-.42.2-.52.66-.66,1.06a7.3,7.3,0,0,1-1,2.49,3.16,3.16,0,0,1-2.15,2.08q-8,3.32-16,6.84c-1.44.63-3,.47-4.44,1a6.72,6.72,0,0,0-1.63.63,1,1,0,0,0-.12,1.44,1.19,1.19,0,0,0,1.48.27,31.89,31.89,0,0,0,3.11-1.77c.63-.36,1.13-1.06,2-.83,1.1.52,1.78,1.71,3.06,2a11.9,11.9,0,0,0,5.69,0,17.57,17.57,0,0,0,5-2.05,3.61,3.61,0,0,0,1.22-1.38,6.09,6.09,0,0,1,2.91-2.78,4.69,4.69,0,0,0,2.48-1.09C234.5,204.62,234.87,204.19,235.42,204.64Z" transform="translate(-12.99 -41.05)"/><path class="cls-2" d="M212.38,214.25c-.31-.84.22-1.47.61-2.08a.51.51,0,0,1,1,.2c.13,1,.72,1,1.43.94s1.05.22,1,.94Z" transform="translate(-12.99 -41.05)"/><path class="cls-2" d="M219.9,214.25c.1-.43-.28-1.14.55-1.15s1.72.14,2,1.15Z" transform="translate(-12.99 -41.05)"/><path class="cls-2" d="M209.8,214.25c.82-1,1.19-1,1.88,0Z" transform="translate(-12.99 -41.05)"/><path class="cls-2" d="M217.55,214.25v-.46c0-.36,0-.75.53-.68s.16.52.19.8c0,.11,0,.23,0,.34Z" transform="translate(-12.99 -41.05)"/><path class="cls-2" d="M205.33,214.25c.06-.35-.14-.75.25-1.12l.69,1.12Z" transform="translate(-12.99 -41.05)"/><path class="cls-3" d="M65.2,192.14l-1.64,0c-.58,0-1.1,0-1.18-.77s.11-1.37.95-1.45.73-.38.63-1a23,23,0,0,1-.41-6.08c.31-2.81.19-5.63.22-8.44a17.08,17.08,0,0,1,.82-5.07,4.49,4.49,0,0,0,.14-1.16c.18-11.31-.23-22.61-1-33.9a3.23,3.23,0,0,0-.38-1.45,1.38,1.38,0,0,0-.45,1.11c-.42,5.34-1,10.68-1,16A222,222,0,0,1,60.64,173c-.31,2.76-.4,5.55-.57,8.32a20.07,20.07,0,0,1-.33,2.67,19.64,19.64,0,0,0-.54,4.41c.11,3.47-2,6.09-5.74,7.53a5.32,5.32,0,0,1-1,.33c-1,.15-2.08.47-2.85-.48a3.14,3.14,0,0,1-.48-3.2,26,26,0,0,1,2.25-4.36,6.4,6.4,0,0,0,0-6.79,4.8,4.8,0,0,1-.44-4.13,5.07,5.07,0,0,0,.17-2.54,72.56,72.56,0,0,1-.48-12.42c.09-11-.3-21.91-.71-32.86,0-.86-.16-1.71-.25-2.57,0-.23,0-.6-.14-.67-1.15-.59-.72-1.6-.66-2.47q.55-9.5,1.18-19a1.39,1.39,0,0,0-.86-1.48c-.74-.41-1.34-.81-2.24-.22-2.86,1.9-5.8,3.67-8.65,5.57-.88.59-1.52.65-2.19-.17-.35-.54-.09-1.13-.16-1.69-.24-1.77-.08-3.64-1.25-5.2-.12-.16-.22-.33-.1-.52a.47.47,0,0,1,.62-.16,2,2,0,0,1,1.57,1.4,4.57,4.57,0,0,0,.27.89,1.79,1.79,0,0,1,.13.32,3.43,3.43,0,0,0,.23.66c.29.45.18,1.27,1,1.26A1.7,1.7,0,0,0,40,104.32c-.35-.36-.89-.11-1.19-.47-.29-.56,0-.94.38-1.31s.67-.73,1-1.12a3.44,3.44,0,0,0,.59-.73c.21-.38.16-.65-.31-.79-1.5-.47-2.12-1.73-2.69-3a6.15,6.15,0,0,0-.41-1.08c-.7-1-.94-1.07-1.89-.24-1.73,1.51-1.73,1.51-3.79.48-.48-.25-1-.45-1.47-.69a41.7,41.7,0,0,0-4.07-2c-.47-.25-.87,0-1.22.2a3.74,3.74,0,0,1-3.81-.16,16.92,16.92,0,0,0-7.22-2.19c-.73-.08-.91-.41-.9-1.06,0-1.68,0-3.36,0-5,0-1.17.45-1.47,1.56-1.07,2.31.83,4.5,2,6.86,2.66a16.6,16.6,0,0,1,3.33,1.08,4,4,0,0,1,1.53,1.2,2.79,2.79,0,0,0,1.47.89c2.14.84,4.29,1.66,6.38,2.61,1,.46,2.27-.53,2.9.32a5.22,5.22,0,0,0,2.18,1.79,2.12,2.12,0,0,0,2.86-1.44,7.4,7.4,0,0,1,2.37-4.82,1.89,1.89,0,0,0,.5-1.51,32.66,32.66,0,0,1,1-8.24c1.22-4.32,3.69-7.29,8.33-8.19a24.93,24.93,0,0,0,6.32-2.08,2.82,2.82,0,0,0,1.81-2.51,9.26,9.26,0,0,1,.27-1.13,6.83,6.83,0,0,0-.1-3.8C61.39,57.38,61,53.9,62.38,50.4a11.81,11.81,0,0,1,1.94-2.89A9.6,9.6,0,0,1,69.47,45c.16,0,0,.05.12,0,3.82-1.58,6.59,1,8.3,3.77,1.33,2.18,1.15,4.55,1,6.93a.9.9,0,0,1-.44.9c-.47.2-.69-.22-1-.45a4.09,4.09,0,0,1-1.76-3c-.06-.78-.56-1.08-1.28-1.06a17.89,17.89,0,0,0-4.61.73c-1.77.53-2.57,2.11-3.26,3.65a24.32,24.32,0,0,0-1.49,7.2c-.06.55,0,1.16-.4,1.56-1.66,1.57-1.09,3.23-.27,4.91A54.6,54.6,0,0,0,68,75.36c.7.86.89.81,1.49-.14.68-1.11.59-2.41,1-3.59.15-.47.1-1.1.71-1.23s.91.46,1.22.9a7.1,7.1,0,0,1,.92,3.45c0,.16,0,0,.06.08s.15,0,.21-.06c.49-1.2,0-2.51.45-3.71a3.4,3.4,0,0,0,.06-.46c.32-1.87.34-1.8,2-.95,1.2.61,2.16,1.55,3.4,2A7.08,7.08,0,0,1,81.33,73a4.38,4.38,0,0,1,.26,2c0,4.54.16,9.08,0,13.6-.18,3.94.16,7.85.07,11.78s0,8,0,12v11.84c0,.47,0,.94,0,1.41,0,1.34-.22,1.51-1.58,1.61-.78,0-.85.54-.94,1.09-.42,2.58-.49,5.2-.78,7.8-.47,4.35-.63,8.72-.86,13.08-.27,5.14-1.55,10.1-2.31,15.15-.44,2.89-.62,5.82-1,8.72s-.9,5.78-1.55,8.64c-.34,1.18-.72,2.36-.12,3.57.22.59.36,1.21.53,1.82a2.32,2.32,0,0,0,1.17,1.62l.26.2a13.42,13.42,0,0,1,1.34,1.38,2.16,2.16,0,0,1,.17.34c.18.83-.39.92-1,1a17.89,17.89,0,0,1-4.32-.28c-.42-.07-.86-.09-1.28-.16A5.87,5.87,0,0,0,65.2,192.14Z" transform="translate(-12.99 -41.05)"/><path class="cls-3" d="M118.33,164a1.16,1.16,0,0,0-.28,1,186.08,186.08,0,0,1,.88,19.46,15.27,15.27,0,0,0,.74,5.31c.41,1.08-.31,2.13-.46,3.21a15.11,15.11,0,0,1-.5,1.8,2,2,0,0,1-1.74,1.6c-1.18.18-1.84,1.26-2.82,1.81a17.42,17.42,0,0,1-10.74,2.54,2.61,2.61,0,0,1-.79-.19,1.64,1.64,0,0,1-1.09-1.14c-.11-.59.47-.77.83-1,2.08-1.48,4.07-3,5.21-5.42a5.88,5.88,0,0,0,.79-2.61c0-.22.12-.6-.37-.5h0a25.09,25.09,0,0,0-2.35,1l-1.15.5c-.82.27-1.58.5-1.33,1.71.17.84-.41,1.23-1.27,1.1l-.1,0h-.11a5,5,0,0,1-2.82-1.24c-.43-.46-1.11-.29-1.69-.29a8.43,8.43,0,0,1-4.23-.65c-1.41-.76-1.5-1.59-.24-2.66,2-.49,4.08-.74,5.86-1.95a7.69,7.69,0,0,0,3.68-5c.65-3.07.18-5.94-.39-8.91-.44-2.32-1-4.65-.58-7.08.25-1.39-.48-2.67-.79-4q-1.76-7.47-3.07-15a8.34,8.34,0,0,1-.08-1.41,18.68,18.68,0,0,0-.36-4.15,46.83,46.83,0,0,1-.14-12.46,2,2,0,0,0-1-2.47c-.68-.33-.61-1-.44-1.65q1.11-4.24,2.26-8.48a7.21,7.21,0,0,0,.29-1.38c0-.61-.16-1.07-.84-1.19a2.19,2.19,0,0,1-2.41-1.65,32.16,32.16,0,0,1-1.11-3.4c-.15-.75-.25-1.64-1.12-2a6.44,6.44,0,0,1-.66-.25c-.42-.17-.75-.12-.64.42.39,1.89-.54,3.32-1.57,4.73-.35.47-.62,1-1,1.46a11.67,11.67,0,0,0-2.4,5.76,5.4,5.4,0,0,1-1.89,3.56c-.87.69-.67,1.79-1.09,2.66-.21.38-.46.93-.89.8-.58-.16-.48-.83-.48-1.32,0-5.43,0-10.86,0-16.28V98.2a11.42,11.42,0,0,1,0-1.17c.12-1.09.59-1.35,1.58-.87A8.08,8.08,0,0,1,85,97.33a12.26,12.26,0,0,0,2.65,1.59c.63.4,1.46.55,1.75,1.39a4.54,4.54,0,0,0,1,1.57,1.34,1.34,0,0,0,2.34-.35,10.25,10.25,0,0,0,.54-5.4,2.32,2.32,0,0,0-1.45-1.6,3.37,3.37,0,0,1-1.7-1.82,3.26,3.26,0,0,0-2.05-2.11c-.4-.11-.94-.28-1.17.19s.28.65.59.87a1.23,1.23,0,0,1,.69,1,.69.69,0,0,1-.4.66.88.88,0,0,1-1-.13c-1.52-1.14-2.55-3-1.89-4.78A1.41,1.41,0,0,0,85,88.2c.09-.42.29-1-.21-1.14s-.6.45-.85.76c0,.11-.07.22-.12.33-.25.53-.46,1.18-1.23,1s-.74-.84-.74-1.42q-.06-6.49,0-13c0-1.42.23-1.5,2-1,1.44.31,1.81,1.5,2.06,2.68s.38,2.56.55,3.83c1.82.21,2.07.54,2.08,2.61,0,.7,0,1.4,0,2.09,0,.39.07.85.68.53h0c1-.24,1.16.43,1.19,1.12a19.31,19.31,0,0,1,0,2c0-1.46.12-3.11.2-4.75S91,80.61,93,80c.77-.24.36-1,.48-1.53,1.69-2.56,1.61-5.59,2.26-8.43a6.36,6.36,0,0,1,.88-2.63c.13-.18.2-.47.47-.45s.37.35.4.61c.1.6,0,1.24.41,1.76a2.59,2.59,0,0,1,.58,3.48,1.55,1.55,0,0,0-.09,1.49,2,2,0,0,0,.77-1.46c.16-2.72,1.81-4.61,3.52-6.44a12,12,0,0,0,2.1-4,.7.7,0,0,0-.23-.94c-.33-.21-.58.08-.82.27a4.46,4.46,0,0,1-.63.52c-.66.37-1,.16-1.07-.59a5.63,5.63,0,0,0,0-.82c-.27-1.5-.27-1.5.58-2.45,0-.08,0-.17-.12-.16-2.39.51-3.83-1.09-5.23-2.51a2.89,2.89,0,0,0-3.52-.91,4.45,4.45,0,0,1-2.29.34,1.67,1.67,0,0,0-1.38.56c-.43.41-.77.32-1.21,0C87,54.1,86.75,53,87.88,50.53,89.62,46.67,94.79,44,99,45.29a24.23,24.23,0,0,1,3.44,1.44,15.87,15.87,0,0,1,5.37,6.79c.42,1,.11,2.17.16,3.26,0,.58,0,1.17,0,1.76s-.19,1.36,1,1.35c.8,0,.65,1,.41,1.41-.46.82-.08,1.31.4,1.85a19.81,19.81,0,0,0,4.3,3.52,12.29,12.29,0,0,1,5.28,5.92,41.07,41.07,0,0,1,2,10.71c.28,2.84.1,5.7.37,8.52.33,3.47.13,7,1.49,10.37a2.46,2.46,0,0,1,.09.82,76.72,76.72,0,0,1,1.22,9.93q.24,4.77.53,9.53a4.17,4.17,0,0,1,.11,1,2.05,2.05,0,0,1-1.08,1.93,22.72,22.72,0,0,1-2.16,1.4,3.91,3.91,0,0,0-2,2.73c-.64,2.21-1.15,4.45-1.84,6.64-.25.79-.66,1.5-.92,2.27a4.27,4.27,0,0,1-.13.54,26,26,0,0,0-.81,5.09c.08,2.31-.48,4.56-.55,6.86A18.3,18.3,0,0,0,117,158.2a4.42,4.42,0,0,1,.25.78c.12.48.22,1,.37,1.42s.54.53,1,.5,1,0,1.23.48-.15.84-.42,1.21S118.7,163.52,118.33,164Z" transform="translate(-12.99 -41.05)"/><path class="cls-3" d="M232.61,141.87c-1-3.2-2.33-6.25-3.54-9.67a13.67,13.67,0,0,0-1.14,4.09c-.79,3.26-1.49,6.53-2.22,9.81-.68,3.08-1.36,6.17-2,9.26-.7,3.28-1.35,6.57-2.07,9.84a28.85,28.85,0,0,0-.7,5.7c-.1,5.6,0,11.19.08,16.79a22,22,0,0,1-1.12,6.29,5.29,5.29,0,0,1-2,1.09c-.44.17-.87.37-1,.77-.36,1.65-1.79,1.94-3,2.46a18.33,18.33,0,0,1-3.27.87,2.69,2.69,0,0,1-3.26-1.79,4,4,0,0,1,1.09-3,4,4,0,0,1,.74-.75,6.51,6.51,0,0,0,2.29-5.4c0-4,0-8-.32-12-.54-6.29-.34-12.58-.34-18.86a81.74,81.74,0,0,1,.22-9.26,30.29,30.29,0,0,0,.18-5.38,56.27,56.27,0,0,0-1.1-9.85,7.87,7.87,0,0,1-.17-1.75,89.32,89.32,0,0,1,.17-9.26c.33-3.58.26-7.17.7-10.74a23.11,23.11,0,0,0-1.37-11.49,1.84,1.84,0,0,0-2-1.43,31,31,0,0,1-5.34-.54c-2.65-.34-3.35-2.12-3.87-4.62s.64-4.63,2-6.63c.8-1.21,1.46-2.49,2.22-3.72a5.21,5.21,0,0,0,1-3.39,2.64,2.64,0,0,1,.74-1.81,6.91,6.91,0,0,0,1.37-3c.18-1,.53-2,.67-2.94a4.42,4.42,0,0,1,2.35-3.45,21.91,21.91,0,0,1,7.38-2.48,22.2,22.2,0,0,1,2.29-.49c1.24,0,1.36.07.92,1.2a16,16,0,0,0-1.22,5.93A9,9,0,0,0,219.92,78a13.28,13.28,0,0,0,3.87,3.2c1,.56,1.27.41,1.16-.64-.28-2.73-.15-5.47-.24-8.2a3.31,3.31,0,0,0-.8-2,1.19,1.19,0,0,1,.05-1.69c1.73-2.21,2.4-2.23,4.25-.08a2.3,2.3,0,0,1,.32.49.88.88,0,0,1,0,.69c-.76,1.3-.3,2.58.07,3.85a53.44,53.44,0,0,1,1.72,11.45,18.3,18.3,0,0,1,.22,2.56c-.06.79-.31,1.21-1.24,1.12a15.51,15.51,0,0,0-4.65.25,6,6,0,0,1-4.46-.41,1.62,1.62,0,0,0-1.26-.06c-1.36.48-1.61.77-1.58,2.19a12.22,12.22,0,0,0,1.79,6.55,2.3,2.3,0,0,0,1.62,1.18c-.25-1.17-.89-2-1.13-3.05,0-1.4.22-1.62,1.56-1.73a4.28,4.28,0,0,1,3.13,1.06c.73.59,1.48,1.15,2.17,1.79.48.45,1,.92,1.74.73l.3-.16a6.65,6.65,0,0,0,.74-.41c.22-.17.41-.37.64-.52.54-.34,1-.21,1,.43.19,2.17.53,4.33.51,6.52a1.56,1.56,0,0,1-.31,1c-2,2.52-4,5.12-6.83,6.82a11,11,0,0,1-4.24,1.54,6.49,6.49,0,0,1-4.7-1.46c-.28-.21-.56-.42-.93-.72a6.6,6.6,0,0,0,6.69,1.93c3.66-.92,6.18-3.32,8.42-6.13.32-.39.66-.77,1-1.17s.46-.48.8-.36.35.49.36.8a6,6,0,0,0,.21,1.51c.25,2.94.42,5.88.75,8.81a2.27,2.27,0,0,1-.5,1.86,2.58,2.58,0,0,0-.52,2.53,23.34,23.34,0,0,1,.87,5.64c0,1.33.92,2.37,1.3,3.59a23.1,23.1,0,0,1,.53,4.89c.08,2.9,0,5.79,0,8.69a5.86,5.86,0,0,1,0,.59c0,.38,0,.93-.43,1s-.51-.48-.66-.83C233,143.05,232.85,142.45,232.61,141.87Z" transform="translate(-12.99 -41.05)"/><path class="cls-3" d="M142.78,125c.43-1.67,1.53-3,2.39-4.41a.45.45,0,0,1,.12-.2c1.52-.92,1.69-2.66,2.46-4a1,1,0,0,0-.11-1.11,1.49,1.49,0,0,1,.3-2.18.83.83,0,0,0,.05-1.41c-1.19-.94-.87-2.18-.75-3.36a7.56,7.56,0,0,1,1-3,15.22,15.22,0,0,0,1.58-11.1c-.28-1.36-.52-2.75-.8-4.12a4.29,4.29,0,0,1,4.06-5.14,7.5,7.5,0,0,0,3.12-.34,5,5,0,0,0,.77-.25c.54-.28,1-.67,1-1.31s-.77-.66-1.33-1c.72-.76.38-1.51,0-2.28a12.64,12.64,0,0,1-1.81-4.64,8.73,8.73,0,0,1,4.26-7.92c1.23-.62,2.44-.09,3.65.14a10.93,10.93,0,0,1,1.12.31,6.25,6.25,0,0,1,3.92,5.5,4.65,4.65,0,0,1-.36,1.94c-.31.89-.68.69-1.11.15a8.36,8.36,0,0,0-1.42-1.55,2.88,2.88,0,0,0-3.39-.32,8.63,8.63,0,0,0-3.6,3.89.87.87,0,0,0,.15,1.08c1.75,1.73,1.35,3.76.74,5.78s-1.23,4-.74,6.19a5,5,0,0,0,.86,1.89c.37.49.57,1.11,1.33,1.51a20.64,20.64,0,0,0,.54-3.92,5.28,5.28,0,0,1,.57-2.59c.25-.46.48-1,1.2-.88,1.33,1,1,2.45,1.16,3.75a19.14,19.14,0,0,0,.4,3.35,1.77,1.77,0,0,0,1-1,20.32,20.32,0,0,0,2.46-5.67,3.49,3.49,0,0,0-.92-3.42,3.53,3.53,0,0,1-.72-3.71c.09-.3.23-.65.63-.55s.36.45.34.77a3.61,3.61,0,0,0,.13,2.25,54.87,54.87,0,0,0,8.1,4.43,5.74,5.74,0,0,1,2.19,1.24c.87,1,.77,1.49-.44,2a24.34,24.34,0,0,0-3,1.39,3.58,3.58,0,0,0-1,.68c-.53.61-.44,1,.3,1.35a6.25,6.25,0,0,0,2.42.43c.82,0,1.64,0,2.46,0A1.23,1.23,0,0,1,179.54,95c0,1.17.07,2.35,0,3.52-.1,1.76.5,3.49.17,5.25-.17,2.08-1,4.15,0,6.24a.87.87,0,0,1-.18.56c-.79.64-1.7.4-2.58.31a30.23,30.23,0,0,0-11,1.08,1,1,0,0,0-.4.22,5.73,5.73,0,0,0-.65,3.95c.21,2.65.21,5.31.33,8-.25,1.26-.25,1.26,1,1.31a4.12,4.12,0,0,1,3.24,1.29c1.61,1.71,3.22,3.4,4.86,5.08,1,1,.81,2.24.81,3.43,0,5.86-.14,11.71.06,17.57a2.77,2.77,0,0,1-1,2.27,6.9,6.9,0,0,1-2.48,1.71c-.13.09-.23.21-.35.31-.35.32-.68,1-1.22.57s.09-.83.17-1.25a3.74,3.74,0,0,1,.57-.92,15.61,15.61,0,0,0,2.57-10.8,11.83,11.83,0,0,0-1.68-5.53,25.91,25.91,0,0,0-4-5.16c-3.93-3.42-8.51-5.1-13.64-4.36a16.67,16.67,0,0,0-12.72,8.66,4.78,4.78,0,0,1-.72,1.07,6.75,6.75,0,0,0-1.07,2.42c-.13.44-.16,1.08-.72,1s-.56-.73-.6-1.22a1.76,1.76,0,0,1,0-.23,7.67,7.67,0,0,1,1.18-3.16,10.2,10.2,0,0,0,1.6-6.23,9.7,9.7,0,0,1,.95-5.33A8.83,8.83,0,0,0,142.78,125Z" transform="translate(-12.99 -41.05)"/><path class="cls-4" d="M177.82,165.38c-.5-.67-1.45-.93-1.66-1.85.57-.2.78.34,1.15.56.21.12.43.23.61,0s0-.36-.09-.53c-.19-.33-.7-.54-.44-1.06.63-.2,1,.27,1.25.65s.73.57,1.16.15c.79-.77,1.71-1.38,2.47-2.17.28-.3.53-.6.14-1-1.4-1.4-3.09-2.46-4.55-4a7.43,7.43,0,0,0-.21,2.66,2.66,2.66,0,0,1-.68,2.16c-.38.34-.2.8-.27,1.21-.32.25-.69.43-1,.7a1.41,1.41,0,0,0-1.18-.73.85.85,0,0,1,0-.52c-.1-.75.38-1.39.47-2a7.51,7.51,0,0,0-.2-4.47.79.79,0,0,1-.09-.78,4.16,4.16,0,0,0,.3-2.15c0-5.59,0-11.17,0-16.75,0-3-.07-6-.08-9a5.45,5.45,0,0,1,0-.7c.05-.52-.13-1.22.62-1.32s.67.62.87,1a4.94,4.94,0,0,1,.09,1.21c0,1.59,0,3.19,0,4.93a7.28,7.28,0,0,0,2.18-2,9,9,0,0,1,2.17-2.1.38.38,0,0,1,.34.09,1.68,1.68,0,0,1-.25,1.44c-1.64,1.11-2.69,2.81-4.09,4.16a1.44,1.44,0,0,0-.34,1.09q0,7.38,0,14.76a.52.52,0,0,0,.14.43c.07,0,.16.07.21,0,1.31-1.69,2.66-3.36,3.87-5.13a6.09,6.09,0,0,0,.47-1.68c.12-.37,0-.92.61-1,.34.36.64.38.93-.08a16.83,16.83,0,0,1,1.2-1.58,5.92,5.92,0,0,0,1.35-4.12c-.1-2.61,0-5.22,0-7.84,0-1.7,0-1.7-1.48-2.07-.12-.85.78-.71,1.09-1.14.5-.41.38-1,.38-1.52q0-4.93,0-9.89c0-1.07-.63-1.5-1.64-1.52s-2.19-.45-3.31-.53c-.29,0-.65-.09-.61-.54a2.91,2.91,0,0,1,2-.22,1.87,1.87,0,0,1,.41.09,14.37,14.37,0,0,0,2.07.32c.81,0,1.16-.31,1.09-1.11-.13-1.55,0-3.11,0-4.66,0-4.09,0-8.18,0-12.27,0-1,0-2.11,0-3.16,0-.58.06-1.28.89-1.22s.84.68.76,1.31c-.1.86,0,1.72-.06,2.57a8.63,8.63,0,0,0-.21,2.09q0,5.1,0,10.2a9.15,9.15,0,0,0,0,1.17c.22,1.56.21,1.56,1.77,1.82a1.7,1.7,0,0,1,1.4.93c-.07.67-.5.38-.82.29-1.42-.4-1.42-.41-2,.83a2.66,2.66,0,0,0-.14,1.28q0,12.09,0,24.19a9.49,9.49,0,0,0,.81,4.24c.26-.27.11-.61.11-.9q0-12.75,0-25.49a8.35,8.35,0,0,1,.09-1.87c.13-.56.56-.56,1-.51.84.09,1.26-.27,1.21-1.14a.5.5,0,0,1,.18-.27c.8,1.06.71,1.64-.47,2-.68.2-.7.59-.7,1.13,0,2.38,0,4.77,0,7.15,0,7.28,0,14.55,0,21.83a15.66,15.66,0,0,0,1.35,6.19c1.56,3.87,3,7.77,4.51,11.67.28.72.94,1.14,1.24,1.82.21.49.69.86.65,1.46-.75,0-.86-.68-1.19-1.11s-.39-.85-.9-.8-.38.6-.53.93a.62.62,0,0,1-.21.27h-.11l-.11,0a5.52,5.52,0,0,0-2-1.77,5.81,5.81,0,0,1-1.29-1.18c-.29-.29-.5-.69-1.08-.76a11.44,11.44,0,0,0,0,2.55c.09.82-.36,1.58-.9,1.47-.78-.17-.85-.76-.75-1.46a7.72,7.72,0,0,0,0-2.2c-.5-.16-.66.23-.89.45-.49.48-.46,1.41-1.35,1.58-.08,0,.08.35.07.55a3,3,0,0,1-1,.77c-.46-.44-.8-.48-1.37,0a17.52,17.52,0,0,0-3.37,3.51c-.3-.46-.64-.62-1.15-.27C178.49,165.27,178.21,165.55,177.82,165.38Z" transform="translate(-12.99 -41.05)"/><path class="cls-2" d="M229,68.2a3.67,3.67,0,0,0-1.29-2c-.42-.38-.5-1.23-1.19-1.15-.84.11-1.28-.38-1.82-.81s-1.23-1.07-1.89-1.55a1.17,1.17,0,0,0-1.89.24,4,4,0,0,0-.56.74,3.34,3.34,0,0,1-.37.73,3,3,0,0,1-.89.84,1.89,1.89,0,0,1-.06.21,5.48,5.48,0,0,1-.26.72c-.2.5-.38,1-.56,1.52a11.32,11.32,0,0,0-.4,7.13c1,3.38,3.48,5.44,6.46,7,.84.45,1.09.34,1-.63-.14-3-.24-5.94-.33-8.91a2.6,2.6,0,0,0-.87-2.2c-.47-.38-.48-.84,0-1.17.78-.55.93-1.93,2.25-1.71.2,0,.35.3.52.46l1.41,1.4C229.19,69.31,229.07,68.68,229,68.2Z" transform="translate(-12.99 -41.05)"/><path class="cls-4" d="M216.12,196.87c-.05.18-.31.35-.51.45A14.32,14.32,0,0,1,210,199c-2.09.11-3.1-1.4-2.21-3.31a9.88,9.88,0,0,1,2-2.55,4.93,4.93,0,0,0,1.21-1.82,13.25,13.25,0,0,0,.57-5.08c-.28-5.74-.6-11.48-.71-17.22s0-11.19,0-16.79a23.82,23.82,0,0,1,.13-2.81,44.11,44.11,0,0,0,.1-9.61c-.23-2.49-.65-5-1-7.44a48.22,48.22,0,0,1,0-8.91c.29-5.23.61-10.47.87-15.7A20.71,20.71,0,0,0,209.28,99a1.13,1.13,0,0,0-1.12-.81c-1.91-.13-3.82-.32-5.72-.52a4.22,4.22,0,0,1-2.73-1.2c-1.34-1.39-2-5.25-1.08-7s2-3.5,3.05-5.25c.91-1.57,2.07-3,1.89-5a2,2,0,0,1,.57-1.38c1.59-1.69,1.65-3.91,2.09-6a5.6,5.6,0,0,1,1.22-2.61,5.07,5.07,0,0,1,1.45-1.12c2.59-1.37,9.85-2.78,10.19-2.84v-.08a.71.71,0,0,0-.24-.45c-5.14,1.09-8.9,2.35-10.31,3.16a5.22,5.22,0,0,0-2,1.8A4.33,4.33,0,0,0,206,71c-.58,2.23-.52,4.67-2.17,6.58a2.46,2.46,0,0,0-.65,2.06,3.33,3.33,0,0,1-.6,2.32c-.86,1.53-1.75,3-2.69,4.51-1.37,2.12-2.45,4.23-1.94,7,.38,2.06,1.85,4.5,3.61,4.51,2,0,4,.79,6,.54a1.07,1.07,0,0,1,1.33.81c.54,1.55,1,3.11,1.44,4.71a18,18,0,0,1,.21,6.88c-.52,3.6-.31,7.23-.73,10.83a91.21,91.21,0,0,0-.09,10.33,3.65,3.65,0,0,0,.14,1.27,14.36,14.36,0,0,1,.71,4.36,73.37,73.37,0,0,1,.17,10.17c-.35,3.44-.2,6.94-.26,10.42-.12,6.09-.07,12.18.33,18.27.27,4,.42,8.12.33,12.19a6,6,0,0,1-1.9,4.56,5.14,5.14,0,0,0-1.59,1.86c-.29.82-1.1,1.53-.54,2.59a3,3,0,0,0,3.77,1.64c1.41-.41,2.83-.81,4.2-1.34a2.34,2.34,0,0,0,1.74-1.73c.11-.56.58-.83,1.13-1.06s1.58-.31,1.86-1.22C218.44,194.71,216.62,194.92,216.12,196.87Z" transform="translate(-12.99 -41.05)"/><path class="cls-4" d="M64.26,70.29a4.14,4.14,0,0,1,0-5.17,2.44,2.44,0,0,0,.51-1.63,23,23,0,0,1,1.39-7.1c.67-1.64,1.48-3.28,3.31-3.9a17.1,17.1,0,0,1,5.65-.8.79.79,0,0,1,.82.94c-.17,1.74,1.05,2.69,2.08,3.69.49.49.62-.2.64-.51.15-1.94.45-3.89-.39-5.77-1-2.31-2.4-4.27-5-5.14-1.69-.58-3.23.1-4.82.43a13,13,0,0,0-4.22,2.18c1-1.61,2.75-2.12,4.41-2.58A12.34,12.34,0,0,1,71,44.37c3.59-.34,5.64,1.68,7.16,4.54S79.46,55,78.52,58A38.18,38.18,0,0,0,77,62.25c-.78,1.51-2.14,2.56-3.07,4-.25.48-.16,1.13-.66,1.51a1.54,1.54,0,0,0-1.57.76c-.68,1-1,1-2.11.33a39.15,39.15,0,0,0-4.11-2.5c-1-.48-1.27-.28-1.33.78A8.41,8.41,0,0,0,64.3,69C64.37,69.39,64.64,69.85,64.26,70.29Z" transform="translate(-12.99 -41.05)"/><path class="cls-4" d="M185.57,93c0,4.91.16,9.82-.1,14.73-.05.87.09,1.78.13,2.67,0,.7-.21,1-.95,1a7.83,7.83,0,0,1-2.83-.51c.52-.47,1.1-.22,1.67-.16s1.35.23,1.47-.68-.62-1.06-1.29-1.14a24.16,24.16,0,0,0-2.69-.06c-.38,0-.85-.12-.91.46a.89.89,0,0,0,.67,1c.38.14,1-.06,1.08.61l-2.1,0c-.22-.08-.37-.2-.26-.46V110c-.14-.66,0-1.39-.58-1.94a.35.35,0,0,1-.1-.42c.78-1.16.47-2.51.67-3.78-.08-3-.36-5.92-.25-8.88,0-.84-.33-1-1.13-1a12.53,12.53,0,0,1-4.76-.34c-.45-.17-1-.28-1.05-.82s.26-.94.68-1.26a15,15,0,0,1,4.29-2.1c.77-.26.69-.61.32-1.08a4.41,4.41,0,0,0-1.94-1.42A43.82,43.82,0,0,1,167,82.22c-.11-.1-.1-.19,0-.26a69.42,69.42,0,0,0,8.2,4.39,5.45,5.45,0,0,1,2.86,2.09c.3.53.92.46,1.39.29a52.64,52.64,0,0,1,8.22-1.89c2.78-.58,5.53-.23,8.29-.4h.12c.85,0,1.78.23,2,1.1s-.66,1.26-1.23,1.65a19.58,19.58,0,0,1-4.57,1.92c-1.45.52-3,.92-4.44,1.31A1.4,1.4,0,0,0,186.77,94v11.27c0,1,.31,1.49,1.45,1.44a66.6,66.6,0,0,1,10.75.45c.4,0,.86,0,.89.54s-.48.48-.77.54a11,11,0,0,1-2.42.34c-1.95-.07-3.88.26-5.82.36a.5.5,0,0,0-.55.45.23.23,0,0,0,0,.18.41.41,0,0,1-.48-.48c-.74-1.09-1.61-1.29-3.24-.69V92.56c.27-1-.18-2.26.83-3.16.27-.24,0-.56-.37-.69a3.59,3.59,0,0,0-1.84-.06c-.43.07-.94.13-1,.59s.41.59.72.79a1.36,1.36,0,0,1,.64,1.28A4.53,4.53,0,0,0,185.57,93Z" transform="translate(-12.99 -41.05)"/><path class="cls-4" d="M96.75,67.42c-.91,1.66-1,3.54-1.35,5.34-.38,2-.55,4-1.77,5.65-.3.36.3,1-.42,1.24-.46-1.33.72-2.13,1.05-3.2.61-2.06.82-4.19,1.25-6.27a8.68,8.68,0,0,1,.68-2.45A1.11,1.11,0,0,0,95.52,66a5,5,0,0,0-2.31-.65,1.61,1.61,0,0,1-1.63-.91c-1.18-2-2.15-4.13-1.9-6.57a2.07,2.07,0,0,0-.91-2.07c-2.28-1.79-2.23-4.44,0-7.09A10.08,10.08,0,0,1,98,44.89a10.44,10.44,0,0,1,4.35,1.61.19.19,0,0,1,0,.31A13.06,13.06,0,0,0,97,45.14c-3.89-.14-8.65,2.5-9.59,7.35a3,3,0,0,0,1.77,3.25c.31.12.41,0,.52-.25A1.2,1.2,0,0,1,91,54.86a10.14,10.14,0,0,0,3.78-.66,1.54,1.54,0,0,1,1.77.49,27.71,27.71,0,0,0,3,2.63,2.26,2.26,0,0,0,2.46.57c.35-.14.93-.34,1.15.17s-.32.69-.63.86c-.69.37-.89.74-.39,1.46.37.52,0,1.22.15,1.85.66,0,.91-.58,1.33-.89s.58-.59,1-.34a1,1,0,0,1,.45,1.23,12.42,12.42,0,0,1-2,4.08c-.59.68-1.16,1.38-1.77,2a6.36,6.36,0,0,0-1.81,4,5.58,5.58,0,0,1-.84,2.28c-.11.2-.24.47-.52.33a.68.68,0,0,1-.28-.48,2.56,2.56,0,0,1,.26-1.82,2.1,2.1,0,0,0-.5-3.08,2.91,2.91,0,0,1-.23-2.36,11.91,11.91,0,0,1,1.69,4.25,3,3,0,0,1-.53,1.66A1.77,1.77,0,0,0,99.08,72c-.08-1.8,1-3,2.07-4.3A13.22,13.22,0,0,0,104,63.28a2.23,2.23,0,0,0,.23-1.25c-.39-.22-.57.13-.76.33a8,8,0,0,1-1.89,1.39A2.84,2.84,0,0,0,99.79,66c-.15.91-1.07,1.26-2,1.28C97.38,67,97,66.53,96.75,67.42Z" transform="translate(-12.99 -41.05)"/><path class="cls-4" d="M249.29,70a12.43,12.43,0,0,1,1.91,6,48,48,0,0,0,.78,5.18,6.8,6.8,0,0,1,.12,1.74c-.06,1,.51,1.11,1.18.87,3.68-1.35,7.49-2.28,11.2-3.57,1.65-.57,3.37-1,5.06-1.5A2.89,2.89,0,0,0,271,78c1.26-1.5,3-1.85,4.78-2.06A12.29,12.29,0,0,0,280,74.54c1.62-.84,3.48-1,4.89.81,1.11,1.45,2.34,2.81,3.52,4.21.46.54.39,1.1-.35,1-3.23-.53-5.59,1.52-8.28,2.6-.82.33-1.58.83-2.42,1.1a4.24,4.24,0,0,1-3.64-.75,2.72,2.72,0,0,0-3-.15c-1.16.6-2.42,1-3.63,1.48-.61.24-1.14.52-1.06,1.32a1,1,0,0,1-.59.94,2.09,2.09,0,0,0-.83.81c-.5.93-1,1.86-2.31,1-.5-.32-.75.14-.72.67.05,1.24.47,2.42.62,3.66a2.24,2.24,0,0,1-.67,2.1,16.12,16.12,0,0,1-4.86,2.94,43.59,43.59,0,0,1-7.2,2.61,6,6,0,0,1-3.39-.4c-.64-.23-1-.16-1,.6,0,2.58.56,5.11.64,7.68,0,1,.22,2,.34,3,.31,2.58.34,5.19.82,7.76.31,1.68.23,3.4.44,5.11.24,2,.4,4,.6,6,.28,2.78.36,5.58.85,8.35a45.44,45.44,0,0,1,.42,4.64c.16,2.14.48,4.26.67,6.39a62.8,62.8,0,0,0,.75,7,38.24,38.24,0,0,1,.49,5.22c.16,3.34.29,6.69.57,10,.24,2.78.4,5.58.85,8.35a15.15,15.15,0,0,1,.08,3.16c-.14,3.52.71,7,.51,10.52-.09,1.6,1.33,2.49,1.92,3.78a5.31,5.31,0,0,1,.15,4c-.55,1.68-.84,1.89-2.69,1.87-2.79,0-5.08-1-6.2-3.8-.27-.68-.56-1.21-1.5-1.15a1.17,1.17,0,0,1-1.11-1.17,38.24,38.24,0,0,1-.48-6.76c.19-2.75-.63-5.33-1.31-8-.86-3.39-1.87-6.75-2.53-10.21a41,41,0,0,0-1.25-5.75,3.57,3.57,0,0,1-.05-1,.31.31,0,0,1,.36.09c.79,1,.74,2.22.93,3.35,1,5.72,2.79,11.23,4.14,16.86a40.71,40.71,0,0,1,.46,5.72c.14,1.51.24,3,.29,4.56a1.65,1.65,0,0,0,1.32,1.82,2,2,0,0,1,1.3,1.25c1.42,2.78,3.33,3.78,6.42,3.39a1.14,1.14,0,0,0,1.08-.74,4.83,4.83,0,0,0-.71-5.19,5.62,5.62,0,0,1-1.18-3.32c-.51-4.51-.3-9.06-.81-13.57q-.52-4.6-.79-9.23-.51-9-1.4-17.88-.6-6-1.25-12T247,129.27c-.38-3.84-.75-7.7-1.09-11.55q-.34-3.85-.75-7.7-.49-4.48-.83-9c-.07-1,.43-1.6,1.29-1.29,3.76,1.34,6.88-.63,10.12-1.86a17.47,17.47,0,0,0,4.72-2.61,2.41,2.41,0,0,0,1-2.24c-.08-1-.46-1.9-.52-2.88,0-.54-.43-.69-.94-.63a10.13,10.13,0,0,1-2.46,0c-1.31-.15-1.7-1-.87-2a1.66,1.66,0,0,0,.3-1.84,5.27,5.27,0,0,1-.28-1.25c-.1-.67.19-.94.87-1.11,1.64-.4,3.29.09,4.92-.21a3.39,3.39,0,0,1,3.42.92c.36.39.89.12,1.33,0,1.2-.47,2.39-1,3.58-1.47a3,3,0,0,1,2.92.15,13.27,13.27,0,0,0,1.36.68,2.67,2.67,0,0,0,2.37,0,44.1,44.1,0,0,0,5.5-2.64,6,6,0,0,1,3.28-.76c.4,0,1,.08,1.14-.39s-.34-.65-.56-1c-.65-.89-1.47-1.62-2.17-2.47-1.42-1.7-2.13-1.89-4.17-1a14.36,14.36,0,0,1-4.35,1.39A8.74,8.74,0,0,0,271,78.75a4.58,4.58,0,0,1-1.81.81c-5,1.57-10,3.1-15,4.66-2.4.74-2.44.61-2.76-1.67-.4-2.83-.64-5.68-1.21-8.48a11.26,11.26,0,0,0-.86-2.67,1.83,1.83,0,0,1-.36-1.32A.2.2,0,0,1,249.29,70Z" transform="translate(-12.99 -41.05)"/><path class="cls-4" d="M227.38,66.28c-.38-.51-.46-1.15-1.56-1-.78.14-1.44-1.15-2.25-1.66a5.79,5.79,0,0,1-.51-.48c-.75-.64-1.48-1.1-2.09.16a.68.68,0,0,1-.6.31c-.67-.06-1.44.31-1.94-.46a.27.27,0,0,1,.1-.33,1.55,1.55,0,0,1,.8,0c1.54,0,2.26-1,1.57-2.36a23.26,23.26,0,0,1-1.46-3.31,5.86,5.86,0,0,1,3.62-7.78,3.12,3.12,0,0,1,2.17-.14c.94.29,1.87.52,2.69-.39.38-.42.94-.22,1.42,0a5.21,5.21,0,0,1,2.53,2.66c.08.22,0,.47.13.69a7.43,7.43,0,0,1-.22,6.12,6.77,6.77,0,0,0-.34,2c-.06.39-.2.82-.65.87s-.61-.42-.73-.78a5.73,5.73,0,0,0-.45-1.44c-.46-.81-1.06-1.4-2.08-1.05a2,2,0,0,0-1.09,2.44c.35,1.91.93,3.77,1.17,5.71A.49.49,0,0,1,227.38,66.28Z" transform="translate(-12.99 -41.05)"/><path class="cls-4" d="M102.34,46.81l0-.31a14.07,14.07,0,0,1,5.72,7.2c.5,1.48.13,3.26.16,4.9,0,.52-.19,1,.8.92s.72.9.58,1.35c-.57,1.86.78,2.7,1.83,3.67,1.86,1.7,4.24,2.71,6,4.61a14.87,14.87,0,0,1,3.09,6.31c.8,2.94.88,6,1.29,9a44.33,44.33,0,0,1,.09,6.21c0,2.43.2,2.12,2.14,2.3,1.74.17,3.45.55,5.18.73.83.08.93-.57,1.36-.88.25.16.15.5.37.7.47-.1.32-.52.49-.78-.36-.25-.56.31-.85.08a1,1,0,0,1,.28-.86.77.77,0,0,1,.84-.27.51.51,0,0,1,.29.68c-.42,1.57.18,2,1.76,2.26a59.14,59.14,0,0,1,8.55,2.16A12.92,12.92,0,0,1,145,97.87c.25.17.64.26.53.66a.79.79,0,0,1-.8.58,36.45,36.45,0,0,1-4.79-.11c-2-.31-4.08-.54-6.11-.81a5.36,5.36,0,0,1-.7-.06c-2.06-.52-2-.52-2.55,1.47-.15.54-.07,1.17-.47,1.64a1.74,1.74,0,0,1-.24-1.5c.27-.88.4-1.81.69-2.69.12-.36.28-.85-.25-1s-.71.33-.79.77a4.42,4.42,0,0,1-.19,1.26c-.14.31-.25.83-.79.38a1.93,1.93,0,0,0-1.73-1.37c-1-.14-1.91-.42-2.87-.63s-1.17-.15-1.24,1a10.51,10.51,0,0,0,.74,3.78,44.25,44.25,0,0,1,1.68,9.56c.29,3.2.44,6.4.41,9.6,0,.74.14,1.34,1.09,1.3s1.48-.35,1.49-1.36c0-3.48,0-7,0-10.45,0-3,.15-6-.16-8.92-.08-.81-.23-1.82.78-2.34a1.76,1.76,0,0,1,.23,1.48,13.28,13.28,0,0,0,.14,3c0,5.62,0,11.25,0,16.87,0,2.3.15,2.36-2.59,2.68a3.29,3.29,0,0,1-1.17-.07,2.16,2.16,0,0,1-.39-.22c-.16-2.48,0-5-.33-7.46s-.2-4.81-.6-7.21c-.28-1.64-.48-3.29-.9-4.9-2-5.6-1.16-11.46-1.64-17.2a68.35,68.35,0,0,0-1.24-10,13.69,13.69,0,0,0-3.93-7.15c-1.37-1.28-3.11-1.92-4.44-3.18-.65-.61-1.3-1.23-1.94-1.87s-1.28-1.23-.58-2.3c.24-.36.4-1.28-.7-1.07-.74.15-.87-.26-.85-.87,0-1.33,0-2.67.12-4a5,5,0,0,0-.73-2.9A18.86,18.86,0,0,0,102.34,46.81Z" transform="translate(-12.99 -41.05)"/><path class="cls-4" d="M167.05,82l0,.26c-.66-.89.08-2-.36-2.89a2.72,2.72,0,0,0,.3,3.83,3.19,3.19,0,0,1,1.1,3.14,16.54,16.54,0,0,1-3.37,7.35c-.15.19-.27.57-.61.42s-.29-.44-.31-.72c-.17-1.7-.37-3.41-.49-5.12a2.66,2.66,0,0,0-.77-1.76c1.09-.35,1.23.53,1.43,1.19a7.84,7.84,0,0,1,.09,2.22,7.38,7.38,0,0,0,.58,2.9c1.32-2.34,2.74-4.45,2.75-7.11a2.64,2.64,0,0,0-.4-1.45c-.49-.76-.92-.82-1.61-.24-.15.12-.29.27-.43.39-2,1.76-2.38,1.76-4.47,0-.84-.68-1.13-.61-1.45.43a9.83,9.83,0,0,0-.15,6.64c.1.29.2.6-.08.87a5.28,5.28,0,0,1-1.16-4.13,11,11,0,0,1,.86-3.87,8.62,8.62,0,0,0,.46-4.22,1.67,1.67,0,0,0-.69-1.17,1.51,1.51,0,0,1-.3-2.27,9.35,9.35,0,0,1,3-3.33,3.45,3.45,0,0,1,5,.8c.37.45.69.94,1,1.42,1.43-2.11.55-5.44-1.79-7.07-.41-.28-1-.33-1.23-.84,2.85.68,4.9,4.48,3.82,7.2a12.17,12.17,0,0,1-.89,2.63.78.78,0,0,0,0,.68C167.48,79.42,166.89,80.71,167.05,82Z" transform="translate(-12.99 -41.05)"/><path class="cls-4" d="M118.33,164c0-.65.61-1,.94-1.4s.64-.68.35-1.12a1,1,0,0,0-1.26-.23c-.82.4-1.06.07-1-.71.47-.21.43.23.58.44.64-1,1.9-.35,2.69-1.16,1.89-1.93,4-3.65,6-5.44a2.2,2.2,0,0,0,.83-1.73c0-1.68,0-3.36,0-5,0-.78-.31-1.14-1.11-1.14a12.86,12.86,0,0,1-2.7-.11c-1.8-.1-3.6-.32-5.41-.36a1.56,1.56,0,0,1-.6-.15c-.79-.47-.76-1.24-.77-2a2.12,2.12,0,0,1,.22-1.16.31.31,0,0,1,.34-.1c.56.62.08,1.46.46,2.12a.89.89,0,0,0,.29.22,16.18,16.18,0,0,0,3.74.17c1.49,0,3,0,4.46,0s2.14.64,2.19,2.15c.05,1.76,0,3.52,0,5.28,0,.53-.14,1.17.71,1.2s.92-.56.93-1.18c0-1.57,0-3.13,0-4.69a4.27,4.27,0,0,1,.14-1.51.57.57,0,0,1,.26-.27c.65.25.46.83.47,1.29,0,1.71,0,3.43,0,5.15a2.37,2.37,0,0,0,.84,2c1.84,1.58,3.55,3.3,5.4,4.86.9.75,1.21.7,1.9-.22.42-.56.76-1.18,1.13-1.78.23-.26.26-.63.49-.89.46-.18,1-.3,1.15.29.21,1.29,1.24,1.9,2,2.77.3.35.84.59.65,1.22a9.31,9.31,0,0,1-2.56-2.32c-.42-.41-.66-.44-1,.07a4.13,4.13,0,0,1-.72,1.06c-.81.74-.94,1.43,0,2.13a.45.45,0,0,1-.44.1c-1-.3-1.2.13-.87,1a.44.44,0,0,1-.12.53c-1-.78-1-.77-1.44.48-.16.49-.32,1-.89,1.14-.31-.43.37-1.19-.48-1.43,1.71-1.89,1.71-1.89-.24-3.65l-.34-.33c-.8-.71-1.7-2.09-2.48-1.89a6.21,6.21,0,0,0-3,2.49c-.92,1.22-.87,1.24-1.82.13a26.9,26.9,0,0,0-2.64-2.48c-.52-.45-.83-.07-1.09.19-1.83,1.73-4,3.17-5.44,5.26C119,163.5,118.77,163.89,118.33,164Z" transform="translate(-12.99 -41.05)"/><path class="cls-4" d="M83.81,73.75c-1.69-.07-1.69-.07-1.69,1.77v12c0,.31,0,.62,0,.93a.62.62,0,0,0,.59.62c.35,0,.43-.26.56-.5s.1-.87.5-1.14c0,0,.08.05.08.08a54.09,54.09,0,0,0,.4,5.55.94.94,0,0,1-.78,1c-.55.11-.87-.22-1-.75.94-.76,1-1.11.36-2.36-.43.66.28,1.39-.16,2a1.65,1.65,0,0,0,.46,2.75,4.84,4.84,0,0,1,1.63,1.08c.23.28.64.51.38,1a20.26,20.26,0,0,0-1.89-1.34c-1-.58-1.16-.47-1.16.7v16.19q0,6,0,12c0,.22,0,.44.05.74.57-.2.49-.85.9-1.06.47.77,0,1.2-.55,1.63-.72.36-1.35,1-2.26.75-.25-.08-.51-.13-.48-.48,1.14.16,1.49-.26,1.49-1.46-.06-10.37,0-20.73,0-31.09a3.81,3.81,0,0,0-.32-1.94,1.08,1.08,0,0,1-.11-.8c.86-2.36.35-4.8.41-7.19.09-3.36,0-6.73,0-10.09,0-.5.11-1-.29-1.45.69-.61,1,.32,1.49.39A1.94,1.94,0,0,1,83.81,73.75Z" transform="translate(-12.99 -41.05)"/><path class="cls-3" d="M144.65,160.71c-.5-.88-1.4-1.39-2-2.17-.37-.47-.88-.82-.79-1.57s-.72-.15-.94-.51a1,1,0,0,1-.7-.56,17.56,17.56,0,0,1-2.44-7.54c0-.78,0-1.56,0-2.34a1.33,1.33,0,0,1,.13-.52c.82-1,.82-1.46,0-2.35-.08-.68-.17-1.37.63-1.73a2.06,2.06,0,0,0,.31,1.38c.67-1.26.57-2.77,1.63-3.71.36.66-.08,1.23-.27,1.78a16.4,16.4,0,0,0,0,11.14,16.05,16.05,0,0,0,11.32,10.65c7.06,1.92,13.09,0,17.9-5.6.28-.32.54-.69,1-.7.14.43-.3.69-.39,1.16.82,0,.91-.82,1.44-1,.34.71-.18,1.13-.61,1.47-1.44,1.14-2.61,2.58-4.13,3.62-.08.06-.26.11-.23.18.4,1.12.4,1.12-.28,2-.15.18-.31.36-.45.54-.28.34-.58.53-1,.24a.84.84,0,0,1-.32-1.12c.08-.2.37-.31.26-.65C157.67,166,151,165.33,144.65,160.71Z" transform="translate(-12.99 -41.05)"/><path class="cls-4" d="M125.17,122.4c.85-.06,1.71-.08,2.56-.17s1-.32,1-1.06q0-9.56,0-19.1c0-.67-.61-1.33,0-2,.37.42.73.84,1-.1.06-.22.15-.47.48-.35,0,.54,0,1.09,0,1.63a2.6,2.6,0,0,0-.25,1.37c0,6.06,0,12.13,0,18.2,0,1.11.37,1.42,1.43,1.38,3.09-.12,6.16.33,9.25.47,1.46.07,1.64.31,1.31,1.39a.58.58,0,0,1-.89-.14,1.37,1.37,0,0,0-1.41-.65c-2.59.06-5.15-.36-7.73-.28-1.7,0-1.82.13-1.82,1.79,0,6,0,12,0,18.06a6,6,0,0,1-.07,1.41c-.07.32-.23.59-.62.58s-.53-.29-.6-.62a6.83,6.83,0,0,1-.07-1.28V126a9.26,9.26,0,0,0,0-1.29c-.2-1.48-.42-1.66-1.93-1.76C126.11,122.94,125.44,123.16,125.17,122.4Z" transform="translate(-12.99 -41.05)"/><path class="cls-4" d="M232.61,141.87c.42.31.4.82.58,1.24a4.47,4.47,0,0,0,.68,1.13c0-5,.33-10-.31-15-.37-1,.33-1.36,1-1.76a.68.68,0,0,1,1.11.33,23.59,23.59,0,0,1,.1,3.85c.09,3.59.5,7.15.83,10.72a2.76,2.76,0,0,1-.51,2.41c-.42.46-.28,1.11-.29,1.69a1.48,1.48,0,0,1-1.27,1.68,1.24,1.24,0,0,0-1.08,1.42c0,1.52,0,3,0,4.56a5.24,5.24,0,0,1-.13,1.63.73.73,0,0,1-.28.32,73.08,73.08,0,0,1-.12-7.69.84.84,0,0,1,.48-.76c1-.49.69-1.28.44-2A16.66,16.66,0,0,1,232.61,141.87Z" transform="translate(-12.99 -41.05)"/><path class="cls-4" d="M238.24,166.09a.76.76,0,0,1-.21,0c-.52-2.8-1-5.6-1.59-8.39-.07-.37.08-1.14-.62-1.06s-.41.75-.41,1.17q0,7.92,0,15.85,0,4.58,0,9.15c-.87-.45-.71-1.34-.74-2-.28-5.22-.94-10.4-1.34-15.61-.09-1.16,0-2.33-.05-3.49.06,1.55,0,3.11.12,4.67a1.92,1.92,0,0,1-.34,1.66.52.52,0,0,1-.21,0c.08-2.26-.12-4.51-.22-6.77a4.44,4.44,0,0,1,.14-1.62c.11-.32,0-.85.46-.84s.29.54.32.85c.13,1.31.35,2.61.44,3.93,0-2-.05-4.1,0-6.15,0-.81-.92-.67-1-1.28a.86.86,0,0,1,.14-.13,19.66,19.66,0,0,0,2.55.06c.81-.1,1.2.51,1.32,1.21.48,2.61.95,5.21,1.47,7.81A1.1,1.1,0,0,1,238.24,166.09Z" transform="translate(-12.99 -41.05)"/><path class="cls-4" d="M37,103.61c-.12-.2-.36-.4-.35-.59,0-1.26-.9-1.54-2.07-2,1.66,2.42,1.43,5,1.54,7.48-.32-.14-.33-.43-.32-.7a13.2,13.2,0,0,0-2.17-7.91,2.56,2.56,0,0,1-.46-2.3c.18-.57-.28-.74-.65-.95a9.45,9.45,0,0,1-2.32-1.3,5.89,5.89,0,0,1,2.34,1c.66.31,1.2.42,1.75-.19a8.3,8.3,0,0,1,.92-.71c1.27-1.08,2.29-.82,2.71.85a6,6,0,0,0,1.55,2.79c.19.2.34.43.63.49s1-.18,1.12.52a1.44,1.44,0,0,1-.89,1.49.45.45,0,0,1-.11-.31c0-.35.56-.79,0-1s-.76.37-1,.77a2.78,2.78,0,0,1-1.57,1.6C37.18,102.79,37.32,103.34,37,103.61Z" transform="translate(-12.99 -41.05)"/><path class="cls-4" d="M207,211a5.74,5.74,0,0,1,3.16-1.07c3-.25,5.4-1.81,8-2.87,3.9-1.56,7.7-3.4,11.62-4.91,1-.39.95-1.17,1.41-1.74.52.74.28,1.58.29,2.38s.36,1.21,1.25,1.28c1.75.13,3.51-.24,5.25.11a.59.59,0,0,1,.29.27c-.94.35-1.93,0-2.88.19-.49-.12-.77.19-1.1.48a3.81,3.81,0,0,1-2.69,1.13,1.14,1.14,0,0,1,.46-1.12l.21-.08c.23-.08.27-.14,0-.13-.75,0-1.38-.13-1.62-1-.15-.55-.57-.22-.87-.12-1.45.48-2.76,1.32-4,1.58a10.18,10.18,0,0,1,5.46-.07.37.37,0,0,1-.21.42c-1.75.34-3.55-.07-5.29.4-.34.09-1-.25-.89.6-.47.93-1.3.81-2.06.6a2.42,2.42,0,0,0-1.68.12c-1.57.67-3.15,1.32-4.7,2-.43.2-.86.4-.87,1-.28.33-.57.14-.85,0s-.58-.24-.86,0c-.9-.24-1.26.65-1.92.92-.37-1-1-1.13-2-.85S208.05,211.49,207,211Z" transform="translate(-12.99 -41.05)"/><path class="cls-3" d="M78.4,64.83c1.08-1.57,2.15-3.14,3.25-4.7.69-1,1.61-1.23,2.37-.71a1.74,1.74,0,0,1,.42,2.48,1.72,1.72,0,0,1-.28.37A7.2,7.2,0,0,0,82.44,68c0,.5.24,1.1-.28,1.53-1.16.4-1.55.17-1.71-1-.06-.41,0-.78-.61-.92C78.15,67.21,77.79,66.45,78.4,64.83Z" transform="translate(-12.99 -41.05)"/><path class="cls-4" d="M156.22,84.58c-.83.73-1.86.49-2.8.53-3,.13-4.69,2.25-4.13,5.15a44.4,44.4,0,0,1,1.1,8.22,15,15,0,0,1-2.09,7.1,8,8,0,0,0-1,3.92c0,.74,0,1.4.94,1.81s.71,1.43-.1,1.94-.91,1-.25,1.69a1.21,1.21,0,0,1,0,1.85c-.19.24-.47.51-.49.78-.11,1.48-1.26,2.15-2.22,3,0-.73.67-1,1.09-1.43.87-.89.79-1.34-.35-1.7A6.75,6.75,0,0,1,145,117a3.38,3.38,0,0,1-1.55-1.2c-.43-.8.51-1,.78-1.53a6.82,6.82,0,0,1,2.33-2.56,1,1,0,0,0,.49-1.1,9.24,9.24,0,0,1,1.32-5.83,14,14,0,0,0,1.43-10c-.31-1.64-.59-3.29-.93-4.92a4.33,4.33,0,0,1,3.57-5C153.66,84.71,155,84.78,156.22,84.58Z" transform="translate(-12.99 -41.05)"/><path class="cls-4" d="M262.73,210.94c-3.41-1.64-7.09-2.47-10.65-3.64-4-1.33-8.09-2.49-12.11-3.83-.45-.15-.9-.22-.72-.8s.57-.39,1-.27c2,.59,3.92,1.16,5.86,1.82,1.7.58,3.45,1,5.17,1.57,2.81.91,5.6,1.92,8.45,2.66,1.19.31,2.32,1.14,3.69.73a1,1,0,0,1,.94.37C263.69,209.88,262.93,210.08,262.73,210.94Z" transform="translate(-12.99 -41.05)"/><path class="cls-4" d="M218.51,62.91c0,.1,0,.19-.08.29-.35-.23-.39-.49-.21-.89.7-1.58.51-2.09-1.07-2.89-.47-.23-.81-.52-.77-1.05.21-3.17-.32-6.3-.48-9.45-.16-2.91,1.42-4.86,3.69-6.31A12.73,12.73,0,0,1,223,41.17a6.1,6.1,0,0,1,3.85.65c3.2,1.3,5,3.78,6.11,7,.52,1.55.77,3.15,1.24,4.7.33,1.13-.35,2.08-.85,3.07-.91,1.79-1.68,3.62-1.06,5.73s1.21,2.48,3.43,2.74c3.59.42,7.23.68,10.53,2.44A8.39,8.39,0,0,1,249.29,70L249,70c-.78-.11-1.21-.77-1.81-1.16a13.89,13.89,0,0,0-2.11-1.15c-2-1.12-4.29-1.29-6.5-1.59a15.56,15.56,0,0,0-4-.52,2.7,2.7,0,0,1-2.67-1.93A8.56,8.56,0,0,1,232.93,56c.89-1.37.39-2.82.2-4.21a10.23,10.23,0,0,0-.56-2.14,1.37,1.37,0,0,1-.16-.32,7,7,0,0,0-1-2.39c-1.56-2.57-3.6-4.45-6.73-5-3.32-.54-9.25,3.27-8.07,8.25a26.26,26.26,0,0,1,.29,5.94,3.33,3.33,0,0,0,1.47,3.2C219.63,60.14,219.58,61.67,218.51,62.91Z" transform="translate(-12.99 -41.05)"/><path class="cls-4" d="M232.15,198.31c.09-.8.27-1.5,1.23-1.73.51-.13.61-.64.61-1.15,0-5.15,0-10.29,0-15.44,0-2.13-.27-4.26-.42-6.39.6.1.51.6.58,1,.26,1.5.25,3,.46,4.52a35.92,35.92,0,0,0,.14,5.19c0,.82.86,1.53,1.08,2.41.09.36.42.7,0,1.07-.24-.17-.42-.19-.42.19,0,2.59,0,5.19,0,7.78,0,.81.93.47,1,1.05a.47.47,0,0,1-.24.24,2.74,2.74,0,0,1-1,0c-.95,0-1.89,0-2.43,1A.54.54,0,0,1,232.15,198.31Z" transform="translate(-12.99 -41.05)"/><path class="cls-4" d="M92.76,189.38c-1.12,1.25-.94,1.65.62,2.33s3.29.42,4.94.53c.54,0,.93.08,1.17.69.38,1,1.57.51,2.19,1.1a1.46,1.46,0,0,1-1.14-.06,12.15,12.15,0,0,0-5.26-.83c-2.82,0-5.62-.16-8.42-.45-.66-.07-1.34-.15-1.83.48a.59.59,0,0,1-.26-.3,4.21,4.21,0,0,1,.11-2.53c.06-.05.18-.11.19-.08,1,1.75,2.8,1.06,4.25,1.32a26.41,26.41,0,0,1,2.89.29c-.6-.63-1.07-1.18-.62-2C91.84,189.5,92.12,189,92.76,189.38Z" transform="translate(-12.99 -41.05)"/><path class="cls-4" d="M166.3,163.73c0-.59.95-1,.66-1.38-.89-1.22.31-1.4.81-1.89,1-1,2.06-1.88,3.12-2.8a1.69,1.69,0,0,0,.66-1.17,7.14,7.14,0,0,0,2.24-1.47c.37-.05.52-.58,1-.45a2,2,0,0,1,.72,2c-.05.74,0,1.48,0,2.22,0,.2.07.44,0,.58a5.17,5.17,0,0,0-.68,2.54c-.66-.82-1.14-1.76-1.78-2.59-.88-1.15-1.37-1.12-2.19.08-.2.28-.21.68-.53.89-.35-.22-.64-.53-1.05,0-.69.87-1.8,1.38-2.06,2.62A1.3,1.3,0,0,1,166.3,163.73Z" transform="translate(-12.99 -41.05)"/><path class="cls-4" d="M82,194.13A6,6,0,0,0,78.85,196c-2.14,2.33-4.37,4.58-6.56,6.87a6.08,6.08,0,0,0-1.07,1.65A3.57,3.57,0,0,1,69,206.7c0-.72.63-1,1-1.45.22-.3.64-.56.48-1s-.61-.1-.93-.15a.74.74,0,0,1-.51-.2c3.19-1.53,5-4.55,7.45-6.89.65-.62,1.21-1.33,1.91-1.89.89-.73.88-1.35,0-2a.36.36,0,0,1,.26-.17s.09,0,.12,0a3.84,3.84,0,0,0,3.08.91A.32.32,0,0,1,82,194.13Z" transform="translate(-12.99 -41.05)"/><path class="cls-5" d="M185.56,161.18c-.12-.32-.7-.33-.58-.79a.64.64,0,0,1,.86-.39c.38.09.28,0,.31-.33.09-.85.87-1.24,1.46-1.69.44-.33.59.12.59.51a20,20,0,0,1-.1,2.45c0,.38-.12.67.21.93a.45.45,0,0,0,.63,0,.83.83,0,0,0,.3-1,9.6,9.6,0,0,1-.11-2.68c0-.46.36-.76.65-.39,1.19,1.51,3.17,2.24,4,4.06-.09-.06-.2-.11-.29-.18-1.84-1.65-2.12-1.65-3.9,0-.4.38-.75.75-1.4.55-.44-.13-.47.26-.53.56a.47.47,0,0,1-.3.1A5.26,5.26,0,0,1,185.56,161.18Z" transform="translate(-12.99 -41.05)"/><path class="cls-6" d="M234.26,179.2c-.36-1.85-.08-3.78-.72-5.6,0-1.89-.35-3.75-.48-5.63.13-2.18-.18-4.37.09-6.56.4.15.31.51.33.79.42,4.82.76,9.65,1.26,14.46.2,1.87.12,3.75.45,5.6a2.14,2.14,0,0,0,.22.52v.46c.2.41.2.85-.29.91s-.22-.45-.3-.71A21.61,21.61,0,0,1,234.26,179.2Z" transform="translate(-12.99 -41.05)"/><path class="cls-3" d="M68.75,193.11l-2.09-.73c-.61-.78,0-.95.56-1a16.35,16.35,0,0,1,3.63.13,31.2,31.2,0,0,0,4.1.34c.73,0,1.48.2,1.1,1.27l-.47.46a10.65,10.65,0,0,1-4.7,0A18.06,18.06,0,0,1,68.75,193.11Z" transform="translate(-12.99 -41.05)"/><path class="cls-3" d="M194,161.87a1.69,1.69,0,0,0,0-.45c-.09-.5-.06-.95.48-1.16s.9.23,1.19.64c.39.56.58,1.25,1.16,1.68.09.17.17.34.27.51.83,1.32.43,2.17-1.11,2.45-.59.11-.94,0-1.1-.65C194.69,163.87,194.34,162.88,194,161.87Z" transform="translate(-12.99 -41.05)"/><path class="cls-3" d="M170.28,160.24c-.17-1.19.82-1.56,1.51-2.13a.41.41,0,0,1,.62.08c.88,1.17,2,2.16,2.37,3.67l-.26.22c-1.62.71-2.57-.56-3.7-1.26A2.73,2.73,0,0,1,170.28,160.24Z" transform="translate(-12.99 -41.05)"/><path class="cls-3" d="M262.73,210.94c-.2-1.34-.1-1.42,1.61-1.39a3.42,3.42,0,0,0,1.85.49,3.09,3.09,0,0,0,.77.23c1.33.38,1.4.53.89,1.87a1.46,1.46,0,0,1-2.21.46Z" transform="translate(-12.99 -41.05)"/><path class="cls-3" d="M139,163.29c.07-.22-.07-.36-.18-.51a.88.88,0,0,1,0-1.24c.42-.49.79-.26,1.2,0a1.13,1.13,0,0,0,.43.11c.64.54,1.3,1.06,1.93,1.61a1.26,1.26,0,0,1,.15,2.07c-1.06.92-1.06.91-1.94-.16a8.17,8.17,0,0,0-.63-.69Z" transform="translate(-12.99 -41.05)"/><path class="cls-4" d="M76.05,193.12c0-.51-.12-.88-.78-.92-2.65-.16-5.31-.36-8-.55-.54,0-1,0-.65.73l-1.46-.24c1.28-2.1,3.29-1.39,5.1-1.25,1.47.11,2.93.29,4.41.38.85.06,1.14-.15.86-1,.51-.08.61.29.74.64.13.66.59,1.32,0,2Z" transform="translate(-12.99 -41.05)"/><path class="cls-4" d="M73.68,66c.93-1.31,2.31-2.27,3-3.79a1.6,1.6,0,0,1,.32.06,3.86,3.86,0,0,1-1.64,2.69,2.48,2.48,0,0,0-.9,2.6c.19,1.1,1.17,1.61,2.06,2.1.42.23.41-.15.45-.42a3,3,0,0,1,1.13-2.09c.32-.12.42.11.51.33a2.07,2.07,0,0,1-.24,1.34,1.61,1.61,0,0,0,.79,2.38,1.19,1.19,0,0,1,.48.49.24.24,0,0,1-.11.28c-1.48-.55-2.59-1.68-3.89-2.5-.68-.42-.87-.41-1,.42a30.81,30.81,0,0,0-.45,3.95c0,.49.06,1-.44,1.37-.41-.37-.32-.84-.25-1.3.18-1.3.14-2.62.44-3.91a3.13,3.13,0,0,0-.29-1.68A3.48,3.48,0,0,0,73.68,66Z" transform="translate(-12.99 -41.05)"/><path class="cls-4" d="M93.21,79.65c.46-.3,0-.92.42-1.24a1.57,1.57,0,0,1-1,2c-1.49.71-1.64,2.23-1.74,3.67-.13,1.7-.17,3.4-.25,5.11,0,.28.08.73-.38.69s-.35-.46-.25-.74a8.15,8.15,0,0,0,.19-2.31,1.17,1.17,0,0,0-1-1.36,3.65,3.65,0,0,0,.92-2.18C90.29,81.29,91,79.87,93.21,79.65Z" transform="translate(-12.99 -41.05)"/><path class="cls-4" d="M234.26,179.2c.09,1.61.86,3.1.72,4.81.48-.14.25-.56.43-.77.55,1.95,1.25,3.87.85,6.23a2.43,2.43,0,0,1-.42-1.69c-.47-.92-.47-2.06-1.35-2.8a.76.76,0,0,1-.22-.62C234.59,182.64,234,180.92,234.26,179.2Z" transform="translate(-12.99 -41.05)"/><path class="cls-7" d="M69,203.93a1.06,1.06,0,0,0,.78-.1c.37-.12.78-.35,1,.08a1,1,0,0,1-.23,1.17c-.53.55-1.09,1.08-1.63,1.62a1.46,1.46,0,0,1-1.53-1.15c-.17-.53.42-.9.91-1.16C68.57,204.26,68.78,204.08,69,203.93Z" transform="translate(-12.99 -41.05)"/><path class="cls-4" d="M63.88,196.41c.74-1.61,6.13-2.52,9.42-1.62A44,44,0,0,0,63.88,196.41Z" transform="translate(-12.99 -41.05)"/><path class="cls-4" d="M78.43,67.73a.67.67,0,0,0-.36-.6c.17-.76-.65-1.66.33-2.3-.28,2-.17,2.13,1.92,2.38.62.07.52.53.47.86-.17,1.11.24,1.61,1.37,1.46.07,1.23-.26,2.5.28,3.7-.57.15-.9-.63-1.49-.39A4.8,4.8,0,0,1,79.5,72l.13-.15c.39-.33,1.05.5,1.2-.13s.45-1.38-.25-1.94a.61.61,0,0,1-.25-.39C80.43,67.94,79.41,67.86,78.43,67.73Z" transform="translate(-12.99 -41.05)"/><path class="cls-3" d="M136.2,163.48c.29.19.68-.37.91.1s-.41.84-.43,1.33c-.25.3-.51.58-.74.89s-.59.6-1,.19-.55-.79-.15-1.21S135.71,163.91,136.2,163.48Z" transform="translate(-12.99 -41.05)"/><path class="cls-3" d="M185.56,161.18a6.88,6.88,0,0,1,1.87,1.65c.33.61-.24.81-.54,1.06s-.62-.1-.87-.31-.29-.36-.46-.52l-.91-1.2C184.69,161.28,185.08,161.17,185.56,161.18Z" transform="translate(-12.99 -41.05)"/><path class="cls-8" d="M67.9,199.37c-1.56.36-3.1.73-4.6,0-.77-.39-1.14-1-.68-2.19C63.8,199.53,65.93,199.18,67.9,199.37Z" transform="translate(-12.99 -41.05)"/><path class="cls-3" d="M177.34,162.57c.27.29.53.58.8.85s.41.63,0,1a.62.62,0,0,1-1,0c-.33-.3-.47-.83-1-.89l-.46-.72c0-.65.37-.79.92-.68A.59.59,0,0,1,177.34,162.57Z" transform="translate(-12.99 -41.05)"/><path class="cls-3" d="M177.82,165.38c.45,0,.67-.47,1-.66s.61-.45,1-.23.1.57.11.87l-.68.95a2.61,2.61,0,0,1-.34.46c-.31.34-.66.58-1.1.26a1,1,0,0,1-.2-1.41Z" transform="translate(-12.99 -41.05)"/><path class="cls-4" d="M76.31,192.91c.39-.71-.36-1.28-.22-1.95,2.12.2,2.12.2,2.71-2a1.09,1.09,0,0,1,.29-.62.33.33,0,0,1,.34.08,1.92,1.92,0,0,1,0,1.59,31,31,0,0,1-1,3l-.14.11C77.75,192.33,77,192.5,76.31,192.91Z" transform="translate(-12.99 -41.05)"/><path class="cls-4" d="M89.19,85.49c-.76.2-.86.17-.9-.54s0-1.64,0-2.46c0-1.63-.18-1.8-1.71-1.94-.06,0-.1-.19-.15-.29,1.42-.36,2.14.2,2.28,1.85.07.82,0,1.64,0,2.46C88.72,85,88.67,85.37,89.19,85.49Z" transform="translate(-12.99 -41.05)"/><path class="cls-4" d="M68.75,193.11c1.12-.19,2.11.5,3.21.47s2.41,0,3.62,0a1.35,1.35,0,0,1-1,.45A14,14,0,0,1,68.75,193.11Z" transform="translate(-12.99 -41.05)"/><path class="cls-4" d="M237.86,199.14a2.62,2.62,0,0,1,.68,1.91c0,.73.12,1.45.13,2.18,0,.43.21,1-.37,1.22l-.13-.14a1.89,1.89,0,0,1-.25-1.33,14.41,14.41,0,0,0-.3-3.53A.41.41,0,0,1,237.86,199.14Z" transform="translate(-12.99 -41.05)"/><path class="cls-9" d="M101.89,194.05c1-.21,1.3-.66,1.08-1.74s.85-.93,1.52-1.07a1.82,1.82,0,0,0-1.16,1.94C103.39,194,102.76,194.39,101.89,194.05Z" transform="translate(-12.99 -41.05)"/><path class="cls-3" d="M141.56,124.1l.26,0c.05.64.1,1.27.17,2l.79-1.15c.17.64-.46,1.06-.46,1.66-.49.65-.82.34-.94-.23A3.06,3.06,0,0,1,141.56,124.1Z" transform="translate(-12.99 -41.05)"/><path class="cls-3" d="M177.59,165.62c.07.46-.22,1,.35,1.33s.78-.58,1.29-.64a1.15,1.15,0,0,1-1,1.07,1.09,1.09,0,0,1-1-.7A.73.73,0,0,1,177.59,165.62Z" transform="translate(-12.99 -41.05)"/><path class="cls-10" d="M267.85,212.14c.79-1.77-1-1.5-1.66-2.1a2.16,2.16,0,0,1,1.74.41C268.77,211,268.35,211.59,267.85,212.14Z" transform="translate(-12.99 -41.05)"/><path class="cls-9" d="M108,189.79c.49-.37.53.07.53.34a4,4,0,0,1-1,2.77c.19-.65.37-1.3.57-2C108.26,190.54,108.38,190.14,108,189.79Z" transform="translate(-12.99 -41.05)"/><path class="cls-11" d="M140,164.48c.35,0,.48.25.61.47.5,1,1.16,1,2,.38-.65,1-1.2,1.07-1.89.19C140.37,165.2,140,165,140,164.48Z" transform="translate(-12.99 -41.05)"/><path class="cls-9" d="M85,193.17c-.9.68-2,.65-3.06,1l-.09-.14c.79-1,1.9-1,3-1Z" transform="translate(-12.99 -41.05)"/><path class="cls-3" d="M185.56,163.06a1.34,1.34,0,0,1,.4.19c.87.84,1.06.79,1.47-.42h.26a1.16,1.16,0,0,1-.88,1.31C186.07,164.27,185.77,163.66,185.56,163.06Z" transform="translate(-12.99 -41.05)"/><path class="cls-4" d="M236.43,196.8a11.2,11.2,0,0,1,1.43,2.34l-.14.12a2.36,2.36,0,0,1-1.43-2.33Z" transform="translate(-12.99 -41.05)"/><path class="cls-9" d="M105.64,190.74a3.92,3.92,0,0,1,2.35-1A5,5,0,0,1,105.64,190.74Z" transform="translate(-12.99 -41.05)"/><path class="cls-3" d="M236.29,196.93a9.8,9.8,0,0,0,1.43,2.33c.86,1.62.48,3.35.45,5.05-2,0-4,0-6,0-.73,0-.89-.25-.94-.93-.09-1,.08-2,0-3a6.49,6.49,0,0,0,.93-2.1C233.06,196.43,234.61,196.5,236.29,196.93Z" transform="translate(-12.99 -41.05)"/><path class="cls-3" d="M207,211a19.52,19.52,0,0,0,3.36-.87c1.28-.32,1.62,0,1.53,1.28-1,.6-2,1.23-3,1.76-.69.36-1.47.46-2-.37C206.56,212.22,206.1,211.55,207,211Z" transform="translate(-12.99 -41.05)"/><path class="cls-4" d="M231.87,205.34c.35.41-.14.61-.24.91a4.48,4.48,0,0,0-2.45,2.35,5.59,5.59,0,0,1-2.86,2.55,11,11,0,0,1-3.59,1.23.43.43,0,0,1-.08-.48,15.91,15.91,0,0,1,2.42-1.35,9.52,9.52,0,0,0,3.14-2.49c.58-.47,1-1.1,1.58-1.56a2,2,0,0,1,1.16-1l.25-.21A.44.44,0,0,1,231.87,205.34Z" transform="translate(-12.99 -41.05)"/><path class="cls-4" d="M213.8,210.49c-.07-.48,0-.81.6-.52.34.17.66.39,1,.59a5,5,0,0,1,2.36,1.39c-.07.71-.07.71-1.16.45C215.32,212.25,214.71,211.15,213.8,210.49Z" transform="translate(-12.99 -41.05)"/><path class="cls-4" d="M216.58,212.4c.24-.32,1,.51.95-.45.26-.29.57-.18.87-.11a6.49,6.49,0,0,0,3.47,0,.76.76,0,0,1,.87.13v.45A8.53,8.53,0,0,1,216.58,212.4Z" transform="translate(-12.99 -41.05)"/><path class="cls-2" d="M79.11,188.45a7.29,7.29,0,0,1-.53,2.47c-.21.79-1.25.78-2.49,0-.1-.29-.19-.57-.52-.67h0a6.29,6.29,0,0,0-1.39-1.43h0a3.37,3.37,0,0,1-1.4-1.65,6.51,6.51,0,0,1-.53-1.83,7.15,7.15,0,0,1,0-3.56c.33-1.88.6-3.77,1-5.64.67-3.23.87-6.51,1.25-9.77s.95-6.66,1.64-9.93c1-4.56,1-9.17,1.29-13.77.36-5.11.77-10.21,1.36-15.3.09-.8.34-1,1-.55.09.21.27.22.46.25.36.18,1,.15.7.86a12.11,12.11,0,0,0-.46,2l-.09.37a93.3,93.3,0,0,1-.63,10c-.27,3.49-.07,7-.78,10.48a10.87,10.87,0,0,0,.25,3.26,17.2,17.2,0,0,0,.47,3.71c0-3.43-.06-6.62,0-9.8.07-3.35.62-6.68.52-10,0-.54-.18-1.62,1.06-1.43a1.25,1.25,0,0,1,.24.76c0,2.6.15,5.19-.07,7.78a28.05,28.05,0,0,0-.1,6.91c.2,2.35.13,4.69.18,7,0,1.33,0,2.66,0,4,0,.36,0,.91-.5.92s-.51-.5-.52-.9,0-.86-.06-1.29a65.32,65.32,0,0,1,.14,12.89,13.57,13.57,0,0,1-.57,2.82,35.32,35.32,0,0,0-.56,8.21A4.06,4.06,0,0,1,79.11,188.45Z" transform="translate(-12.99 -41.05)"/><path class="cls-12" d="M73.69,68.12a2.07,2.07,0,0,1,.53,2,41.63,41.63,0,0,0-.51,5c-.57.38-.63.36-.68-.36a6.89,6.89,0,0,0-.7-3.16c-.14-.23-.29-.46-.44-.68s-.35-.45-.67-.38-.33.38-.39.65c-.36,1.65-.37,3.42-1.47,4.85-.31.39-.56.78-1,.12a46.23,46.23,0,0,1-4.07-5.94,16.63,16.63,0,0,1-.44-3.45c.07-1.17.55-1.53,1.54-1,1.49.84,3,1.71,4.37,2.68.8.56,1.26.79,1.74-.33.3-.7.9-1.33,1.81-.61C73.6,67.63,73.67,67.85,73.69,68.12Z" transform="translate(-12.99 -41.05)"/><path class="cls-4" d="M78.27,105.89c-1.35,1.36-.78,2.47.37,3.52.39.36.25.79-.12,1.12-1,1-2.29,1.61-3.27,2.65-.36.38-.72.2-.82-.33a5,5,0,0,1,0-.56c-1.3,0-1-1.35-1.6-2a.89.89,0,0,1-.27-.94C72.9,107.88,76.51,105.59,78.27,105.89Z" transform="translate(-12.99 -41.05)"/><path class="cls-4" d="M37,103.61c0-.59-.34-1.2.76-1.3.71-.06,1-.94,1.36-1.6.14-.28.15-.75.55-.82s.9-.22,1.21.12-.14.61-.29.91-.17.42-.26.63c-.33.84-1.44,1.18-1.42,2.23.08.15.23.18.38.25s.69-.19.84.18-.26.62-.49.85c-.94,1-1.63.81-2.16-.41A10,10,0,0,0,37,103.6Z" transform="translate(-12.99 -41.05)"/><path class="cls-4" d="M65.31,118.72a4.87,4.87,0,0,1-3.45-4c-.36-1.92-.27-4-1.7-5.6a.35.35,0,0,1,0-.53c.19-.13.36,0,.5.17A3.64,3.64,0,0,1,62,111.24C62.28,114.05,63,116.77,65.31,118.72Z" transform="translate(-12.99 -41.05)"/><path class="cls-4" d="M62.4,103.73A26.39,26.39,0,0,1,66,100a3.54,3.54,0,0,1,2.74-.77.61.61,0,0,1,.57.51c0,.3-.26.35-.49.36-2.12.07-3.35,1.61-4.75,2.86C63.6,103.31,63.24,103.82,62.4,103.73Z" transform="translate(-12.99 -41.05)"/><path class="cls-4" d="M58.66,109c.71,2.75.58,5.69,1.8,8.32-2.72-2.24-1.24-5.55-2.41-8.18Z" transform="translate(-12.99 -41.05)"/><path class="cls-4" d="M64.59,99.78a31.53,31.53,0,0,0-3.85,3,.38.38,0,0,1-.61,0,.45.45,0,0,1,.2-.61A15.61,15.61,0,0,0,63,99.85C63.44,99.48,63.92,99.54,64.59,99.78Z" transform="translate(-12.99 -41.05)"/><path class="cls-4" d="M37,103.6a1.73,1.73,0,0,1,.56.87c.59,1.29,1.09,1.38,2.11.34.13-.14.24-.29.42-.5-.48-.14-1.08.15-1.18-.53a.79.79,0,0,1,.22.06c.44.22,1.34-.27,1.3.23a2.14,2.14,0,0,1-1.7,1.7.86.86,0,0,1-1.24-.65C37.34,104.61,36.91,104.19,37,103.6Z" transform="translate(-12.99 -41.05)"/><path class="cls-3" d="M72.27,181.82c0,1.19,0,2.37,0,3.56C71.45,184.19,71.82,183,72.27,181.82Z" transform="translate(-12.99 -41.05)"/><path class="cls-3" d="M72.78,187.21l1.4,1.65A1.7,1.7,0,0,1,72.78,187.21Z" transform="translate(-12.99 -41.05)"/><path class="cls-3" d="M74.18,188.86a2,2,0,0,1,1.39,1.43A5.72,5.72,0,0,1,74.18,188.86Z" transform="translate(-12.99 -41.05)"/><path class="cls-2" d="M92.76,189.38c-1.54.59-1.53,1.19.21,2.74l-4.85-.28a4.67,4.67,0,0,0-.81-.09c-1.18.13-2.12-.08-2.36-1.45-1-.79-1-2-1.27-3.06a1.68,1.68,0,0,0-1.06-1.42,1.28,1.28,0,0,1-.79-1.21,11,11,0,0,1,0-1.28q0-14.24,0-28.47a3.51,3.51,0,0,1,.36-2.16,1.69,1.69,0,0,0,.63-1.42c0-1.59,0-3.17,0-4.76a1.48,1.48,0,0,0-.47-1.26,2.18,2.18,0,0,1-.51-1.75q0-7.72,0-15.46c0-.61-.08-1.29.64-1.63a1.63,1.63,0,0,0,.65-1.46,4.35,4.35,0,0,1,1.4-3c1.45-1.27,1.47-3.29,1.8-5.08a4.59,4.59,0,0,1,.77-1.91c1.06-1.49,2-3,3.15-4.5a3.82,3.82,0,0,0,.68-3.09c-.07-.41-.39-.93,0-1.2s.77.15,1.14.36a1.62,1.62,0,0,0,.44.14c.56.21.64.69.77,1.2.44,1.65.53,3.39,1.41,4.91.64,1.11,1.08,1.31,2.37.93,1.06,0,1.5.49,1.23,1.64-.51,2.2-1.11,4.38-1.69,6.57-.33,1.24-.65,2.49-1.05,3.71-.27.84.38,1,.84,1.11.84.2,1,.63.9,1.43a60.07,60.07,0,0,0,0,13.47c.18,1.42.23,2.85.45,4.26a47.7,47.7,0,0,0,1.09,6.82c.54,2.71,1.15,5.41,1.74,8.12a9.66,9.66,0,0,0,.49,1.92c1.24,2.83.19,5.87.85,8.76.4,1.71.61,3.47,1.06,5.16s0,3.33-.23,5c-.55,4.83-4.13,6.39-8.14,7.45A16.76,16.76,0,0,1,92.76,189.38Z" transform="translate(-12.99 -41.05)"/><path class="cls-3" d="M116.94,138.37c1.43-2.83,1.86-6,2.81-8.94.35-1.1.58-2.19,1.85-2.73a28.24,28.24,0,0,0,2.44-1.59,1.61,1.61,0,0,0,.94-1.59.53.53,0,0,1,.39,0c.45.22.75.76,1.44.33.44-.26,1.1.53,1.11,1.32s-.07,1.4-.07,2.11q0,7.38,0,14.77a9.31,9.31,0,0,1,0,1.18c-.11.91-.67,1.39-1.52,1.16a10.09,10.09,0,0,0-4.85-.22c-.53.11-1.07-.24-1.62-.09a3.54,3.54,0,0,0-1.56.78.5.5,0,0,1-.64.07h0c-.21-1.11,0-2.24-.25-3.35-.09-.47-.17-1.16.67-1.24a.16.16,0,0,0,.13-.25C117.73,139.57,117.78,138.65,116.94,138.37Z" transform="translate(-12.99 -41.05)"/><path class="cls-2" d="M123.76,146.11c1,0,2,0,2.93,0,.73,0,1.08.24,1.07,1,0,2,0,3.91,0,5.86a1.81,1.81,0,0,1-.71,1.41l-6.45,5.78c-.71.64-2.72.84-3.24.31l-.36-1.22a3.91,3.91,0,0,0-.6-2.44,11.53,11.53,0,0,1-.82-4.55c0-3.42.59-6.8.93-10.2,0-.37.24-.81.63-.61s.3.73.05,1.12l0,1.16c-.15.71-.35,1.43.49,1.89l.45,0C120,146,121.87,146,123.76,146.11Z" transform="translate(-12.99 -41.05)"/><path class="cls-4" d="M85.17,97.77c-.47-1.22-1.69-1.49-2.65-2.09a2.37,2.37,0,0,1-.33-2.74c.06,0,.28.06.43.09h0c0,.52.32.94.87.78a.9.9,0,0,0,.5-1.17,11.28,11.28,0,0,1-.2-5.26c.28-.45.48-1.16,1.19-.8s.48,1.14.28,1.68c-.71,1.94.13,3.33,1.48,4.56.28.26.55.63,1,.41a.63.63,0,0,0,.32-.45.93.93,0,0,0-.76-.9,1,1,0,0,1-.57-.36,1.06,1.06,0,0,1-.33-1.07c.14-.42.58-.33.91-.33,1.81,0,2.56,1.35,3.2,2.69A2.13,2.13,0,0,0,91.6,94a3.3,3.3,0,0,1,2.12,3.86c-.18,1.07-.2,2.17-.47,3.24a2.1,2.1,0,0,1-1.77,1.65c-.85.17-1.2-.61-1.64-1.11a2.1,2.1,0,0,1-.66-1.35c-.11-1-1-.88-1.64-1.18A5.62,5.62,0,0,1,85.17,97.77Z" transform="translate(-12.99 -41.05)"/><path class="cls-3" d="M125.17,123.57l-.19,0-.06-.89c-.1-.12-.08-.21.06-.28l.19.05c.68.48,1.44.22,2.15.2a1.18,1.18,0,0,1,1.35,1,8.13,8.13,0,0,1,.26,2q0,8.87,0,17.73c0,.32,0,.63,0,.94s.11.4.34.4.33-.19.34-.4,0-.63,0-.94V124.74c0-.5.11-1,.12-1.51s.27-.6.67-.6a98.93,98.93,0,0,1,11,.52c.14.46-.72.41-.31.89a4.19,4.19,0,0,1-3.18.24,30.68,30.68,0,0,0-5.74-.34c-1.63,0-1.74.11-1.75,1.72,0,5.52,0,11,0,16.56a16.48,16.48,0,0,1,0,2c-.08.7-.38,1.22-1.16,1.22s-1.06-.55-1.14-1.24a9.15,9.15,0,0,1,0-1.17V125.64c0-1.58-.25-1.83-1.8-1.76A2,2,0,0,1,125.17,123.57Z" transform="translate(-12.99 -41.05)"/><path class="cls-4" d="M94.58,88c-.4-1.1-.11-2.24-.56-3.35-.6-1.46.35-2.94.4-4.43,0-.23.24-.31.45-.25a.54.54,0,0,1,.4.73c-.72,1.58-.08,3.13,0,4.7a11.74,11.74,0,0,0,.23,2.2c.32,1.25-.42,2.23-.91,3.28-.07.15-.19.27-.36.19s-.2-.36-.15-.59C94.28,89.61,94.43,88.77,94.58,88Z" transform="translate(-12.99 -41.05)"/><path class="cls-4" d="M117.18,142.6c-.1-.32.1-.7-.31-1.15a35.7,35.7,0,0,0-.54,3.64c-.14,2.14-.59,4.24-.62,6.4a16.07,16.07,0,0,0,1.23,6.37c.19.46.45.93,0,1.42a16,16,0,0,0-.52-1.66c-1.56-3.6-1.08-7.31-.66-11,.1-.85.15-1.7.22-2.55.33-1.69.44-3.41.93-5.07.89-.33.8.52.73.79-.25.94,0,1.91-.28,2.82Z" transform="translate(-12.99 -41.05)"/><path class="cls-3" d="M125,122.35l-.06.28c-.3-.28-.22-.65-.22-1,.07-3.67-.36-7.32-.54-11-.13-2.62-.7-5.22-1.08-7.82a9.19,9.19,0,0,1,.9,3.59A134.31,134.31,0,0,1,125,122.35Z" transform="translate(-12.99 -41.05)"/><path class="cls-4" d="M97,113.72a1.68,1.68,0,0,1-2.59-.68A13.54,13.54,0,0,1,93,108a2.65,2.65,0,0,0-.57-1.35c1.29.23,1.18,1.45,1.37,2.26a30.38,30.38,0,0,0,1.2,3.52A1.71,1.71,0,0,0,97,113.72Z" transform="translate(-12.99 -41.05)"/><path class="cls-4" d="M84.73,108.45c1.31,1.26.87,2.8.61,4.29a7.19,7.19,0,0,1-.64,1.62.41.41,0,0,1-.48.25c-.3-.08-.29-.36-.22-.57a10.23,10.23,0,0,1,.52-1.29A5.81,5.81,0,0,0,84.73,108.45Z" transform="translate(-12.99 -41.05)"/><path class="cls-4" d="M117.41,142.59c0-1,0-2.08,0-3.13,0-.24.08-.77-.48-.35a.24.24,0,0,1-.06-.33l0-.41c.33-.11.54-.6.91-.41s-.06.5-.11.75.12.43.31.57a1.56,1.56,0,0,1,.47,1.74c-.46.13-.36-.5-.65-.39s-.21.54-.21.82c0,1.17,0,2.34,0,3.52C117.22,144.21,117.64,143.37,117.41,142.59Z" transform="translate(-12.99 -41.05)"/><path class="cls-13" d="M116.9,138.78l.06.33a34.41,34.41,0,0,1-.93,4.94A19.63,19.63,0,0,1,116.9,138.78Z" transform="translate(-12.99 -41.05)"/><path class="cls-14" d="M97.65,145.91a10.26,10.26,0,0,1-.45-4.26A12.27,12.27,0,0,1,97.65,145.91Z" transform="translate(-12.99 -41.05)"/><path class="cls-4" d="M97.66,67.17c-.7.79,0,1.57,0,2.36-.71-.53-.54-1.3-.53-2s-.27-.08-.4-.1c-.06-.31-.09-.64.31-.73s.58.1.6.48Z" transform="translate(-12.99 -41.05)"/><path class="cls-4" d="M87.54,99.15c.72.15,1.7-.06,1.64,1.18C88.92,99.55,88,99.7,87.54,99.15Z" transform="translate(-12.99 -41.05)"/><path class="cls-15" d="M219.9,95.38l1.26,2.76c.1.22.19.45,0,.64s-.43.07-.65,0a3.62,3.62,0,0,1-2-2,14.77,14.77,0,0,1-1.43-6.57,1.67,1.67,0,0,1,1.63-1.89,1.48,1.48,0,0,1,1.25.06,8.24,8.24,0,0,0,5.79.2,8.52,8.52,0,0,1,3.59,0A1.51,1.51,0,0,1,230.67,90a8.65,8.65,0,0,0,.21,1.62c.75,2.51-.29,4.28-2.26,5.7h0c-.92.42-1.58-.09-2.18-.66-.87-.84-1.85-1.54-2.8-2.29a3.83,3.83,0,0,0-3.47-.4C219.34,94.12,219.71,94.83,219.9,95.38Z" transform="translate(-12.99 -41.05)"/><path class="cls-4" d="M228.62,97.28a3,3,0,0,1,1-1.38,2.5,2.5,0,0,0,1.06-2.73c-.14-1.07-.35-2.15-.39-3.23a1.29,1.29,0,0,0-1.24-1.3,6.75,6.75,0,0,0-3.13,0,8.69,8.69,0,0,1-6.44-.24,3,3,0,0,0-.81-.11,1.43,1.43,0,0,1,1.56-.1,6.83,6.83,0,0,0,5.12.27,8.58,8.58,0,0,1,4.06-.06c.69.16.87,0,.81-.62-.25-2.8-.49-5.61-.74-8.41a55.3,55.3,0,0,0-1.66-7.4c-.18-.79-.37-1.51.41-2.11.23-.18.07-.52.05-.78,1.1-.58.25-1.25,0-1.81-.17-.39-.62-.67-.94-1l.06-.3c.41-.1.65.21.91.42a1.21,1.21,0,0,0,1.69.07,1.75,1.75,0,0,0,.88-1.74c0-.44,0-1.17.83-.69a18.21,18.21,0,0,1,1.91,3c.16.35.5.74,0,1.13-1.11-.37-1.09-1.65-1.85-2.3-.08,0-.11.05-.18.1-2,1.72-1.23,4-1,6,.28,2.33.22,4.69.61,7,.1.63,0,1.31.49,1.83a10.32,10.32,0,0,0,0,4.07,22.69,22.69,0,0,1,.28,4,2.87,2.87,0,0,0,1,2.26c1.11,1,1.1,1.92,0,3a1.73,1.73,0,0,0-.52,1.68c.49,3,.56,6,.85,8.95.33,3.48.47,7,.94,10.46a3.7,3.7,0,0,1-.08,1,1,1,0,0,1-1.16.76c-.6-.06-.57-.49-.61-.94-.31-3.33-.45-6.68-.87-10-.2-2.85-.46-5.7-.65-8.56,0-.31-.08-.61-.11-.92-.07-.75-.38-.77-.88-.32-.26.23-.46.52-.73.75S228.9,97.34,228.62,97.28Z" transform="translate(-12.99 -41.05)"/><path class="cls-4" d="M231.69,105.88c.54,2.28.38,4.63.67,6.94.13,1,.18,2,.27,3,0,.45-.09,1,.66,1s.66-.51.66-1c0-.23,0-.46.05-.69a.24.24,0,0,1,.34,0,1.19,1.19,0,0,1,.17.36,1.57,1.57,0,0,0,.94,1.36,2.1,2.1,0,0,1,1.12,1.44,14.31,14.31,0,0,1-1.18,9.3,1.61,1.61,0,0,0-1.83,1.59c-1.63-1.83-1.34-4.17-1.64-6.34-.19-1.35-.82-2.6-.75-4a1.54,1.54,0,0,1,.54-1.34,1.91,1.91,0,0,0,.63-2c-.35-2.93-.57-5.88-.72-8.83A.73.73,0,0,1,231.69,105.88Z" transform="translate(-12.99 -41.05)"/><path class="cls-4" d="M231.69,105.88c0,.26-.05.53-.07.8-.4-.6-.05-1.3-.29-2-.92.29-1.22,1.17-1.72,1.8a17.18,17.18,0,0,1-7,5.59c-2.83,1.12-5.47,1-8-1.18-.45-.39-.5-.53-.7-1.5.54.44.93.78,1.34,1.08,3.15,2.29,5.36,2.25,9,.18,2.87-1.64,4.83-4.25,6.78-6.83.52-.69.2-1.67.14-2.52-.09-1.39-.26-2.78-.42-4.17,0-.33.19-.79-.23-.94s-.49.32-.74.5-.32.19-.49.29c0-.07,0-.17.07-.22.4-.44.68-1.25,1.37-1.06s.38,1,.42,1.45C231.33,100.07,231.5,103,231.69,105.88Z" transform="translate(-12.99 -41.05)"/><path class="cls-4" d="M219.9,95.38c-.76-1.18-.6-1.32.6-1.69,2.7-.81,4.07,1.23,5.74,2.54a3.85,3.85,0,0,0,2.38,1c-.73.85-1.35.16-1.88-.23-1-.75-2-1.59-3-2.41a3.6,3.6,0,0,0-2.61-.72C220.07,94,219.67,94.34,219.9,95.38Z" transform="translate(-12.99 -41.05)"/><path class="cls-16" d="M170.5,156.36c-.76.84-1.47,1.73-2.28,2.5a17.23,17.23,0,0,1-25.31-1.48,16.64,16.64,0,0,1-3.51-14.61c.25-1.27.83-2.43,1.11-3.68a18.78,18.78,0,0,1,5.23-6.34c4.72-3.33,9.83-4.54,15.5-2.77a16.94,16.94,0,0,1,10.35,8.53,2,2,0,0,0,.31.34c2.59,5.8,2.47,11.43-1,16.87Z" transform="translate(-12.99 -41.05)"/><path class="cls-3" d="M162.69,126.54c.62-.85,1-.74,1.24.18.11.45.19.81.73.37s.78-.14.92.36c.25.87.62,1.24,1.58.72s1.89,0,2,1.18a.9.9,0,0,0,.54.83c.18.09.36.23.21.45a.3.3,0,0,1-.5.06c-.64-.7-1.2-.63-1.9,0-.44.37-2-.4-2.1-1s-.34-.91-1.11-.56c-1.31.59-2.52-.4-3.78-.44s-2.76.32-4.06-.6c-.43-.3-1.16,0-1.55.54-.22.29-.55.49-.8.34-1.68-1-3.19.33-4.79.29a2.69,2.69,0,0,0-2.74,1.28v-1.4c-.37.29-.7.56-.64,1,.2,1.31-.61,1.59-1.63,1.7-.6.07-1.37,0-.88,1.05.21.45-.29.59-.6.69-.54.16-.47-.29-.45-.57a20.15,20.15,0,0,1,.54-4.21c.22-.79-.06-1.73.46-2.54.33-.51.59-1,1.29-1,.42,0,.86-.23.68-.86-.1-.37.21-.44.47-.53s.4-.39.22-.54c-.89-.77.13-1.37.15-2,0-.14.33-.4.38-.37,1,.58,1.41-.31,2.06-.69a.94.94,0,0,1,1.19-.06c.51.42,0,.76,0,1.15,1,.26,1.86-.43,2.82-.28.13,0,.45-.26.44-.29a1.21,1.21,0,0,1,.53-1.67c.15-.1-.28-.54,0-.75,1.12-.81.81-1.15-.38-1.31-.35,0-.27-.41-.23-.68a4.89,4.89,0,0,0-.38-3.24.7.7,0,0,1,.2-.93c.28-.28.56-.55.82-.84s.41-.66.08-.93-.58,0-.75.3-.5.71-.91.56-.19-.58-.13-.92-.16-.43-.4-.49-.47,0-.7-.09c-2.32-.48-2.33-.49-2-2.73.05-.41.35-.43.66-.53.77-.25,1.29-.66,1.05-1.64a2.63,2.63,0,0,1,.1-1.36c.68-2-.27-3.93,0-5.9.11-.87-.18-1.8.42-2.61a.74.74,0,0,0,0-.68c-.57-1-.33-2.11-.66-3-.43-1.26.48-2.27.18-3.41,0-.08.2-.32.3-.31,1,.1,1.88-.71,2.94-.59s1.41-.38,1.28-1.54c.43.43,1.76.13,1,1.48,0,.06-.06.19,0,.22,1.09.86.24,2,.37,2.95a2.45,2.45,0,0,0,.43,1.29,2.76,2.76,0,0,1,.69,1.57c-.22,1.93,1.2,2.19,2.46,2.68a1.06,1.06,0,0,0,1.35-.38c.32-.42.65-.55,1.1-.26,1.49,1,2.63.21,3.55-.88a3,3,0,0,1,1.58-.82c1-.35.84.62,1.22,1a4.8,4.8,0,0,0,3.08,1.08,6.2,6.2,0,0,0,2.7-.68A3.15,3.15,0,0,1,176,94.2c1.86,0,2.61,1,2.34,2.86a11.86,11.86,0,0,1-.69,3.64c-.05.1-.08.28,0,.34.69.76,1,1.41-.18,2.06-.26.14,0,.55.37.79.75.47.68,1.19-.11,1.57-.63.31-.93.64-.65,1.37s-.12,1.52,0,2.3c.07.44-.59.51-.92.52a26.62,26.62,0,0,1-4.89-.09,3.42,3.42,0,0,0-1.39,0,10.34,10.34,0,0,1-2.8.49,5.06,5.06,0,0,0-2.84,1c-.24.2-.46.32-.73.18s-.22-.39-.08-.6.34-.5-.06-.66a1.41,1.41,0,0,0-1.24.16c-.3.16-.56.37-.34.74a3.46,3.46,0,0,1,.32,2,1.15,1.15,0,0,0,.45.89,2.88,2.88,0,0,1,.61,3.69,1,1,0,0,0,0,1c1,1.51.51,3.16.46,4.77,0,.11-.11.23-.09.33.26,1.1,0,1.58-1.2,1.1a.56.56,0,0,0-.53.12c-.18.25.11.38.24.56A12.52,12.52,0,0,1,162.69,126.54Z" transform="translate(-12.99 -41.05)"/><path class="cls-3" d="M125.17,123.57c4,0,3.27-.25,3.29,3.16,0,5.71,0,11.42,0,17.12,0,.41-.15.89.3,1.19a1,1,0,0,0,.9.05c.48-.18.4-.62.4-1v-10.9c0-2.78,0-5.56,0-8.33,0-1,.31-1.25,1.28-1.3,3.3-.19,6.53.56,9.81.49l.41.06a7.78,7.78,0,0,1,.05,2.1c0,.58.23.7.71.41a8.71,8.71,0,0,0-.95,3.87,13,13,0,0,1-2,8.65,5.17,5.17,0,0,0-.78,2.29,3.53,3.53,0,0,0-.47,1.88,1.79,1.79,0,0,1,0,2.1l0,.51a2.44,2.44,0,0,0-2.36-.66,27.11,27.11,0,0,1-3.25,0,1.91,1.91,0,0,0-1.9.84c0,2.34,0,4.68-.08,7,0,.37.12.86-.46.9a3.48,3.48,0,0,1-1.84-.09c-.08,0,0-.35,0-.53,0-2.11,0-4.22,0-6.33,0-1.23-.47-1.69-1.69-1.7-2.46,0-4.92,0-7.39,0-.52,0-1.1.12-1.49-.41.68-.07.71-1,1.55-1a32.74,32.74,0,0,1,4.64-.18,6.62,6.62,0,0,1,2.68.41c.76.34,1-.45,1-1.23q0-7.26,0-14.52a14.22,14.22,0,0,1,.12-3.26c.14-.56-.47-.75-.73-1.28l-.19,1A3.31,3.31,0,0,1,125.17,123.57Z" transform="translate(-12.99 -41.05)"/><path class="cls-3" d="M164.91,124.28q-.24-4.8-.47-9.6a6.74,6.74,0,0,1,.7-2.86c.34.73.78.94,1.66.73a44.84,44.84,0,0,1,7.31-1c2.31-.17,4.59.44,6.89.58.93.06,1.85.32,2.79.34a1.48,1.48,0,0,1,1.51.91c.1,3.08,0,6.16,0,9.23,0,1.08-.65,1.31-1.52,1.32-2.22,0-4.4-.44-6.6-.63a19.22,19.22,0,0,0-6.15,0,7.3,7.3,0,0,1-1.75.12,6.73,6.73,0,0,0-3.12.64C165.79,124.24,165.4,124.6,164.91,124.28Z" transform="translate(-12.99 -41.05)"/><path class="cls-17" d="M158.76,92.36a10.18,10.18,0,0,1-.68-5,13.17,13.17,0,0,1,1-3.65c.2-.6.68-.23,1,0a21.12,21.12,0,0,1,1.81,1.47,1,1,0,0,0,1.45,0,10,10,0,0,0,2.08-1.69c.46-.58.86-.46,1.38-.06a2.37,2.37,0,0,1,.91,1.83c.1,3.16-1.55,5.63-3.24,8.3a14.72,14.72,0,0,1-.7-5.29c0-.85-.12-1.67-1.21-1.81-1.07.53-1.17,1.56-1.29,2.55-.22,1.77-.38,3.54-.59,5.45A4.27,4.27,0,0,1,158.76,92.36Z" transform="translate(-12.99 -41.05)"/><path class="cls-4" d="M169.13,123.1a12.58,12.58,0,0,0,3.12-.32,13.08,13.08,0,0,1,3.59,0c2.62.31,5.24.54,7.86.8,1.49.35,1.53.33,1.53-1.14,0-3,0-6.07,0-9.1a.21.21,0,0,1,.32-.1c0,3.61,0,7.22,0,10.82a1.05,1.05,0,0,1-.72,1.17c-2.05-.56-4.2-.34-6.27-.77-1.45-.3-1.52-.18-2.15,1.12,0,.12-.18.12-.3.11-.34-.3,0-1.18-.62-1.08s-.3.86-.32,1.32c-.1,2.17-.22,4.38-.13,6.52.29,6.71,0,13.42.15,20.13a3.39,3.39,0,0,1-.49,2c-.34.12-.54.55-1,.45,1.12-.83,1.07-2,1.06-3.24-.06-6,0-11.94,0-17.91a2.22,2.22,0,0,0-.6-1.7l-5.07-5.35c-.27-.34-.37-.77.08-.94s.7.42,1,.73c1.23,1.45,2.65,2.7,4.17,4.29.13-1.69.06-3.07.06-4.44,0-2.27-.05-2.24-2.35-1.93-2.08.28-4.13.74-6.22,1-.46,0-.9.14-1-.42s.33-.63.66-.81A14.87,14.87,0,0,1,169.13,123.1Z" transform="translate(-12.99 -41.05)"/><path class="cls-4" d="M185.58,113.23h-.25c-.07.11-.15.11-.22,0-1.07-.89-2.4-.45-3.6-.67a32.07,32.07,0,0,0-11.92-.21,13.29,13.29,0,0,0-3.38.74c-.89.43-1.14.1-1.07-1.28a31.22,31.22,0,0,1,11.92-1.26,3.37,3.37,0,0,0,2.4-.16l.26.46a20.72,20.72,0,0,0,4.05.72C184.88,111.63,185.56,112,185.58,113.23Z" transform="translate(-12.99 -41.05)"/><path class="cls-3" d="M170.62,86.29c.12.7.42.9,1.17.69.9-.25,1.49.24,1.57,1.23a2.41,2.41,0,0,1-1.94,2.7c-.56.13-.79.6-1.2.89s-.83.77-1.33.32-1.27-.93-.84-1.83C168.72,88.88,169.1,87.28,170.62,86.29Z" transform="translate(-12.99 -41.05)"/><path class="cls-3" d="M170.08,126.84l-.3-.32c-.17-.17-.17-.62-.53-.44s-.09.49-.09.74a3.66,3.66,0,0,0-3.24-1.11c-1.28,0-1.43-.14-1-1.43,1.38-.5,2.69-1.26,4.22-1.18-1,.58-2.21.63-3.23,1.15-.38.19-1.08.24-.84.89s.73.18,1.11.09A69.93,69.93,0,0,1,173.5,124c1.05-.13,1.42.27,1.28,1.29a7.82,7.82,0,0,0,0,1.28C173.22,126.89,171.64,126.56,170.08,126.84Z" transform="translate(-12.99 -41.05)"/><path class="cls-3" d="M173.82,141.06c-.81-1.08-.71-2.4-1.08-3.56a3.73,3.73,0,0,1,.4-2.56c.13-.21.28-.42.11-.64a.52.52,0,0,0-.65-.1c-1,.47-2,1.15-1.64-.88,0-.29-.26-.33-.5-.36s-.55,0-.51-.31a.73.73,0,0,1,.43-.5c.62-.09,1.42-.87,1.75.41a.69.69,0,0,0,.94.46c.7-.19,1,.29,1,.84,0,2.34,0,4.68,0,7C174,140.94,173.91,141,173.82,141.06Z" transform="translate(-12.99 -41.05)"/><path class="cls-4" d="M148.72,110.85c1.66-.41,2,.65,2.47,1.52,1.32,2.58,1.15,4-.75,5.92C151.74,115.43,151.59,112.88,148.72,110.85Z" transform="translate(-12.99 -41.05)"/><path class="cls-3" d="M170.9,155.72a23.73,23.73,0,0,0,2.1-5.14,17.68,17.68,0,0,0-.84-10.85c-.11-.28-.17-.58-.26-.88a9.59,9.59,0,0,1,1.68,4.6,15.2,15.2,0,0,1,0,6.12C173.11,151.79,172.61,154,170.9,155.72Z" transform="translate(-12.99 -41.05)"/><path class="cls-3" d="M149,114.55a.51.51,0,0,1,.27-.66c.22-.12.48-.22.62,0s.73.64.55,1.19a6,6,0,0,0-.3.76c-.11.54.08,1.45-.69,1.34-.62-.08-.2-1-.28-1.49S149.2,114.85,149,114.55Z" transform="translate(-12.99 -41.05)"/><path class="cls-4" d="M179.44,103.81a7,7,0,0,1-.36,3.54.7.7,0,0,0,.07.82,2.27,2.27,0,0,1,.3,1.78C178.12,107.91,179.25,105.86,179.44,103.81Z" transform="translate(-12.99 -41.05)"/><path class="cls-3" d="M175,88.78c-.2,0-.41-.06-.35-.32a.54.54,0,0,1,.46-.45c.22,0,.33.18.34.38S175.25,88.78,175,88.78Z" transform="translate(-12.99 -41.05)"/><path class="cls-3" d="M181.82,141.65c-.37,3.36-2.95,5.45-4.67,8-.18.27-.4.72-.77.59s-.22-.61-.22-.94q0-7.5,0-15a1.8,1.8,0,0,1,.43-1.41c1.19-1.23,2.36-2.49,3.53-3.75.21-.23.41-.52.74-.15a.69.69,0,0,1,.51.2,2.45,2.45,0,0,1,.77,1.54c.05,3.2,0,6.39,0,9.59a2.23,2.23,0,0,1-.18,1.14Z" transform="translate(-12.99 -41.05)"/><path class="cls-1" d="M181.81,130.38l-.7-1.16a3.57,3.57,0,0,1,2.41-3.34h.17c1.86-.07,1.85-.07,1.85,2,0,2.93,0,5.85,0,8.78a4.39,4.39,0,0,1-.89,2.94c-.85,1.09-1.66,2.2-2.51,3.33-.45-.46-.13-.91-.34-1.24h0a16.42,16.42,0,0,0,.24-2.89c.06-2.34-.22-4.68,0-7A2.59,2.59,0,0,0,181.81,130.38Z" transform="translate(-12.99 -41.05)"/><path class="cls-18" d="M188.19,110.85q0,14.85,0,29.71c0,.06-.07.12-.19.35a7.16,7.16,0,0,1-1.42-4c-.06-9,0-17.93,0-26.9,0-.38,0-.75.49-.35A1.22,1.22,0,0,1,188.19,110.85Z" transform="translate(-12.99 -41.05)"/><path class="cls-19" d="M178,152a17.25,17.25,0,0,0,1-2.77q.39-.66.81-1.29c.22-.33.42-.74.86-.69s.54.52.69.87c1,2.27,1.79,4.6,2.79,6.85.22.5.05,1.11.47,1.54h0c.23.51.24,1.09.68,1.54s.32.77-.23,1-.58,1.13-1.38.74-1.18-1.18-1.86-1.67c-1.14-1-2.27-2.09-3.43-3.11a1.72,1.72,0,0,1-.8-1.33A1.15,1.15,0,0,1,178,152Z" transform="translate(-12.99 -41.05)"/><path class="cls-20" d="M181.83,145.18a23,23,0,0,0,2.36-3,1.86,1.86,0,0,1,.51-.64c.42-.35.71-.22.84.29a2.64,2.64,0,0,1,0,.69c0,4,0,8,0,11.94,0,.38.2,1-.38,1.07s-.7-.43-.87-.82c-1.07-2.47-2-5-3-7.49A1.87,1.87,0,0,1,181.83,145.18Z" transform="translate(-12.99 -41.05)"/><path class="cls-21" d="M177.34,162.57l-.72-.44c-.35-.53-.43-1,.17-1.45,1-.76.42-1.89.6-2.85.13-.66-.38-1.64.25-2s1.19.63,1.6,1.09c1,1.17,2.44,1.85,3.47,3,.33.38.56.56.11,1a42,42,0,0,1-3.34,2.92c-.34.28-.59.48-.82-.18A1.58,1.58,0,0,0,177.34,162.57Z" transform="translate(-12.99 -41.05)"/><path class="cls-20" d="M193.78,160a24.89,24.89,0,0,1-4.37-3.94c-.75-1-.29-2.42-.21-3.64a3.13,3.13,0,0,1,.92-2.53c1.32,3.36,2.62,6.64,3.91,9.93Z" transform="translate(-12.99 -41.05)"/><path class="cls-4" d="M181.83,145.18c-.74,1-.25,1.89.1,2.79q1.38,3.48,2.8,6.93c.07.19.28.32.63.69v-3.15c0-3.25,0-6.49,0-9.74,0-.4.24-1-.24-1.16s-.56.48-.93.61c.23-.65.46-1.58,1.18-1.47.54.08.44,1,.44,1.67q0,6.27,0,12.54a3.05,3.05,0,0,1-.4,1.72c-.45-.15-.32-.81-.87-.92-.2.26.19.53.08.78a20.6,20.6,0,0,1-1.89-4.2c-.65-1.46-1.25-3-1.81-4.44-.24-.65-.48-.49-.78-.12s-.76,1-1.14,1.48C179.54,147.56,180.81,146.46,181.83,145.18Z" transform="translate(-12.99 -41.05)"/><path class="cls-21" d="M186.61,155.44V141.76C188.84,144.28,188.9,151.71,186.61,155.44Z" transform="translate(-12.99 -41.05)"/><path class="cls-3" d="M180.88,127.55q-1.95,2.16-3.91,4.31c-.14.16-.4.37-.56.34-.33-.07-.26-.44-.26-.69,0-1.55,0-3.1,0-4.66.06-.1.09-.22.15-.3.5-.61,4.22-.79,4.73-.22S181.19,127.18,180.88,127.55Z" transform="translate(-12.99 -41.05)"/><path class="cls-3" d="M180.88,127.55c.28-.91.07-1.34-1-1.2a15.74,15.74,0,0,1-2.57,0,1.3,1.3,0,0,0-1.12.48v-1.17s.08-.05.08-.08c.23-1.68.24-1.76,2.12-1.53a31.79,31.79,0,0,0,5,.46,3,3,0,0,1,1.55.69l-1.21.67v0a3.82,3.82,0,0,0-2.61,1.61A1.52,1.52,0,0,1,180.88,127.55Z" transform="translate(-12.99 -41.05)"/><path class="cls-16" d="M185.57,93a.78.78,0,0,1-.22-.75,1.9,1.9,0,0,0-1.3-2.36c-.79-.27-.7-.76,0-1.22a4.48,4.48,0,0,1,3.27-.25c.49.08.92.81.4,1.17a2.55,2.55,0,0,0-1,2.54c0,.13-.13.27-.2.4a13.35,13.35,0,0,1,.09-3c.11-.46-.08-.67-.51-.71s-.54.22-.54.59C185.58,90.62,185.57,91.83,185.57,93Z" transform="translate(-12.99 -41.05)"/><path class="cls-3" d="M188.19,110.85,187,109.67c0-1.26.42-1.59,1.61-1.18a8.59,8.59,0,0,1,1.14.56l.48.48c0,.42.55.87,0,1.25A2.12,2.12,0,0,1,188.19,110.85Z" transform="translate(-12.99 -41.05)"/><path class="cls-3" d="M176.17,160.39c0-2,0-3.76,0-5.51a.29.29,0,0,1,.28-.31.66.66,0,0,1,.55.37C177.45,155.67,177,159.36,176.17,160.39Z" transform="translate(-12.99 -41.05)"/><path class="cls-3" d="M178,152l-.42,1.68c-.63.48-.9-.13-1.23-.44s-.06-.61.13-.9a9.37,9.37,0,0,1,1.72-2.05Z" transform="translate(-12.99 -41.05)"/><path class="cls-4" d="M181.09,127.52c.62-1.55.79-1.65,2.61-1.61-1.22.83-2.39,1.69-2.59,3.31-.17,0-.23-.06-.26-.2Z" transform="translate(-12.99 -41.05)"/><path class="cls-4" d="M185.07,159c.25-.34.41-.7,0-1a1.75,1.75,0,0,1-.48-1.5c.33.55.67,1.1,1,1.66S185.73,159,185.07,159Z" transform="translate(-12.99 -41.05)"/><path class="cls-4" d="M181.83,158.08a4.24,4.24,0,0,1,1.86,1.67A3.93,3.93,0,0,1,181.83,158.08Z" transform="translate(-12.99 -41.05)"/><path class="cls-4" d="M73.69,68.12l-.41-.5c.24-.52,0-1.15.4-1.64A1.41,1.41,0,0,1,73.69,68.12Z" transform="translate(-12.99 -41.05)"/><path class="cls-19" d="M185.12,99.93c0,1.92,0,3.84,0,5.75,0,.68-.17,1-.92,1-1.19-.13-2.3.38-3.46.46-.71,0-1.07-.1-1.06-.94,0-3.76,0-7.52,0-11.28,0-.7.32-.91.89-1.13,1.25-.49,2.62,0,3.88-.65.57-.28.67.46.67.94Z" transform="translate(-12.99 -41.05)"/><path class="cls-22" d="M181.82,110.88c-.22-.3-.56-.21-.86-.24a1.39,1.39,0,0,1-1.23-2c.07-.16.16-.3.32-.26,1.45.37,2.94-.08,4.4.31.93.24.9.84.87,1.51s-.5.94-1.2.91a8.5,8.5,0,0,0-2.3-.25Z" transform="translate(-12.99 -41.05)"/><path class="cls-23" d="M97.66,67.17a14.13,14.13,0,0,0,1.39-.59c.26-.15.64-.39.58-.69-.28-1.41.77-1.8,1.69-2.29a8.76,8.76,0,0,0,2.23-1.69c.24-.24.46-.76.93-.42s.18.69.09,1.08a11.83,11.83,0,0,1-2.9,4.95c-1.2,1.42-2.57,2.72-2.41,4.85A3.23,3.23,0,0,1,98.52,74a1.94,1.94,0,0,1,.09-1.58,2,2,0,0,0-.1-2.58,3.59,3.59,0,0,1-.85-2.7Z" transform="translate(-12.99 -41.05)"/><path class="cls-3" d="M235.39,127.61c-.06-1,.52-1.84.69-2.79a15.71,15.71,0,0,0,.28-6.22c-.15-.65-.45-1.37-1-1.46-1.2-.21-1.14-1-1.1-1.8a2.94,2.94,0,0,1,2.83,1.39,6.15,6.15,0,0,1,.78,2.92,18.65,18.65,0,0,1-.45,5.47,6.88,6.88,0,0,0-.05,2.56c.05.75,0,1.42-.95,1.77s-.56,1.24-.29,1.73c1,1.83.92,3.76.77,5.71a3.85,3.85,0,0,0,.3,1.83,4.49,4.49,0,0,1,.28,2.87,5.36,5.36,0,0,0-.13,2.55A3.26,3.26,0,0,1,237,146a2.26,2.26,0,0,0,0,2.24.5.5,0,0,1-.3.83c-1.59.41-1.93,1.64-2.08,3,0,.35,0,.7,0,1.05,0,.84-.1,1.51,1.2,1.24s2.31,1.18,2.05,2.36a1.12,1.12,0,0,0,.12,1.09,5.05,5.05,0,0,1,.84,2.53c.17,1.14.09,2.35,1.32,3.07a.82.82,0,0,1,.1,1.18,2.88,2.88,0,0,0,0,3.09,2.53,2.53,0,0,1,.26,1.92,1,1,0,0,0,0,.69,26.44,26.44,0,0,1,1.13,4.54,1.6,1.6,0,0,0,.58,1c.75.52.93,1.13.2,1.86,1.28.1,1.36.2,1,1.33a2.67,2.67,0,0,0,.49,2.43,3.12,3.12,0,0,1,.5,1.64c.22,1.84.08,3.67.47,5.54a11.48,11.48,0,0,1-.19,5.78c-.46,1.39-.26,1.66,1.25,1.6a3.34,3.34,0,0,1,1.78.47,1.44,1.44,0,0,1,.86,1.52c0,.12,0,.24,0,.35-.05,1.32,0,2.57,1.71,2.8,0-.64.07-1.31,1.1-.85s1-.53,1.66-1c-1.19-.22-1.21-.93-1.1-1.81a8.22,8.22,0,0,0-.3-2.75,9,9,0,0,1,0-4.47,4.53,4.53,0,0,0-.43-4.16c-.57-.76-.27-1.75-.32-2.63s.21-1.6-.63-2.13a.26.26,0,0,1-.13-.3c.59-1.06,0-1.88-.43-2.79-.24-.52.26-1,.54-1.49.59-1,.88-1.86-.07-2.85a2.36,2.36,0,0,1-.24-2.46c.11-.37.18-.6-.36-.75-1-.29-1.26-1.09-.45-1.79a1.53,1.53,0,0,0,.46-1.84,6,6,0,0,1-.16-3.23,1.44,1.44,0,0,0-.76-2,1.22,1.22,0,0,1-.37-1.85,6.53,6.53,0,0,0,.55-2.2,3.38,3.38,0,0,0-.4-3,1.88,1.88,0,0,1,.23-1.9,1.32,1.32,0,0,0-.16-1.81,2.33,2.33,0,0,1-.36-2.83,1.47,1.47,0,0,0-.07-1.63,3.19,3.19,0,0,1-.33-3.13,1.39,1.39,0,0,0-.15-1.52,2.78,2.78,0,0,1-.32-3c.34-.71.35-1.26-.49-1.62-.58-.25-.57-.77-.44-1.31.17-.71.46-1.4.63-2.12-1.25-.2-1.74-1-1.28-2.09.17-.41.29-.73-.23-.95a.9.9,0,0,1-.49-.63,1.38,1.38,0,0,1,.17-1.54c.47-.48.92-.09,1.32.16.1-.15.13-.27.07-.3-2-1.31-.87-3.39-1.2-5.1-.05-.26.09-.57,0-.82a3.83,3.83,0,0,1,.11-3.7.62.62,0,0,0-.2-.82,1.84,1.84,0,0,1-.6-1.37c.09-1.87-.82-3.73-.5-5.48a9.87,9.87,0,0,0-.23-3.66,4.65,4.65,0,0,1,.26-2.77,1,1,0,0,0-.14-1.1c-1-1.33-.67-2.85-.48-4.29a1.4,1.4,0,0,1,1.91-1,2.37,2.37,0,0,0,2-.18,4.75,4.75,0,0,1,2.89,0,3.16,3.16,0,0,0,3.65-1.6c1.37-2.08,2.19-2.62,3.83-2.11.47.15,1.21.5,1.41-.47a2.13,2.13,0,0,0-.92-2.2,5.66,5.66,0,0,0-1.16-.22c-.93-.12-1.76-.39-2.07-1.43-.15-.49-.49-.56-.93-.4-.22.09-.44.16-.65.26a24.72,24.72,0,0,1-5,1.93,2.88,2.88,0,0,0-2,1.72,1.36,1.36,0,0,1-1.24.92,8,8,0,0,0-2.69.73c-1,.43-2.14-.08-3.23-.06-.42,0-.85-.11-1.29-.09-1.25.06-1.45-.18-1.3-1.4,0-.27.09-.53.14-.87a4.61,4.61,0,0,0-1.22,1.67.76.76,0,0,1-.92.55c-.91-.22-1.07.26-1.13,1,0,.48-.06,1.06-.79,1.07-.33-1.32-.51-2.57.77-3.59a1.17,1.17,0,0,0,0-2,3.53,3.53,0,0,1-1.31-2.86c0-.7-.63-1.27-.46-2,.2-.37.5-.19.69,0a12.33,12.33,0,0,0,1.62,1.33.54.54,0,0,1,.14.83c-.32.42-.55.7-.08,1.27a1.53,1.53,0,0,0,1.89.69c-.54-.45-1.35-.81-1-1.57s.65-1.86,1.89-2,2.67,0,3.87-.75c.19-.11.62-.21.5-.37-.82-1.06.46-1.27.74-1.88a.75.75,0,0,1,1-.48.92.92,0,0,1,.68,1c-.15,1,.43.87,1.06.74a27.6,27.6,0,0,0,4.34-1.44c1.16-.46,1.36-.84,1.16-2.07a2.45,2.45,0,0,0-.29-.89,3.88,3.88,0,0,1-.5-3.07,7.43,7.43,0,0,0-.65-3.53c-.06-.19-.11-.45-.25-.52-.56-.31.61-1.76-1-1.42-.6.12-1.21-.42-2-.06-1.12.51-1.26.26-1.42-1.06-.1-.79-.77-1.59.48-2-.38-.45-.87-.45-1.15-.81-.43-.55-.94-.47-1.42,0a1,1,0,0,1-1.45.1c-.12-.1-.32-.25-.41-.17-.85.75-1.93.48-2.9.69-.33.08-.4.37-.33.66.14.62-.11,1.25.07,1.87a.77.77,0,0,1-.31.93c-.59.37-.58.86-.65,1.49s-.23,1.27.62,1.78c.52.31.21,1-.44,1.24-1.09.3-1.73.83-1.54,2.08.08.51-.39.69-.78.91-1.1.62-1.27,1.14-.8,2.28a.84.84,0,0,1,.08.78,5.31,5.31,0,0,0-.54,1.9c-.09.49-.29,1-1,.8-.05-1.6,0-3.19.09-4.78a1.84,1.84,0,0,1,.62-1.24,4.11,4.11,0,0,0,1.25-2.34c.17-1,.79-1.75,1-2.7a2,2,0,0,0,.15-1.11.89.89,0,0,1,0-.58c1.23-2.27-.45-4-1.14-5.88-.38-1-.29-1.42.76-1.89a6.08,6.08,0,0,1,2.7.44c.46.63,0,.9-.47,1.15a2.46,2.46,0,0,1-1.48.18,2.51,2.51,0,0,0,.8.54,1.11,1.11,0,0,0,1.55-1.06c0-.29-.13-.63.28-.78,2.53.34,5.09.56,7.41,1.74,1.52.35,2.52,1.47,3.65,2.4a15,15,0,0,1,2,6.88c.24,2.3.62,4.57.91,6.86.07.58.26.71.84.53q6.75-2.1,13.52-4.16c.82-.25,1.65-.48,2.46-.75a5.69,5.69,0,0,0,2.7-1.31c1.38-1.55,3.33-1.54,5.14-1.89a13,13,0,0,0,3.63-1.27c2-1.06,3.13-.84,4.61.89,1,1.17,2,2.32,3,3.47.35.41.5.9-.22.85-3.66-.26-6.33,2.2-9.45,3.41-1.26.49-2.45.79-3.52-.05-1.77-1.38-3.42-1-5.16,0-.51.28-1.1.4-1.62.67-1.09.58-2,.83-2.9-.44a1,1,0,0,0-1.64-.2.77.77,0,0,1-1,0,.65.65,0,0,0-.85,0c-.65.4-1.26.6-1.87-.09-.2-.23-.5-.15-.74.07s-.37.48-.68.37c-1.6-.59-1.26.4-1,1.27a5.45,5.45,0,0,0,.29.89,1.25,1.25,0,0,1-.42,1.73c-.32.21-.7.5-.49,1a1.11,1.11,0,0,0,1,.65,7.08,7.08,0,0,0,2.56-.19c.83-.31,1.11,0,1.16.75a19.46,19.46,0,0,0,.44,2.42c.43,2.12.18,2.69-1.94,4a44.78,44.78,0,0,1-10.12,4.26c-1.3.39-2.55-.13-3.8-.44-1-.24-1.3,0-1.18,1.07.59,5.83,1.09,11.68,1.66,17.52.55,5.64,1.14,11.28,1.7,16.92s1,11.07,1.65,16.58c1.25,10.25,1.52,20.59,2.54,30.86.38,3.85.4,7.74.65,11.6a3.27,3.27,0,0,0,.95,2.3,5.52,5.52,0,0,1,.84,6,.86.86,0,0,1-.65.45c-2.95.55-6.35-.32-7.42-3.54-.24-.71-.54-1.2-1.47-1.16s-1.08-.89-1.14-1.59c-.18-2.15-.4-4.3-.38-6.45,0-3.31-.94-6.39-1.8-9.51-1-3.61-1.92-7.23-2.58-10.92-.25-1.38-.61-2.74-.92-4.11-.11-2.22-.79-4.35-1.11-6.54-.12-.81-.32-1.6-.44-2.41s-.55-1.08-1.31-.88a2.55,2.55,0,0,1-2.23-.34c0-2.27,0-4.54,0-6.8,0-.92.3-1.34,1.17-1.32s1-.47,1.09-1.25-.48-1.86.78-2.43c.39-.17.11-1,.06-1.56A113.15,113.15,0,0,1,235.39,127.61Z" transform="translate(-12.99 -41.05)"/><path class="cls-3" d="M218.51,62.91a3.47,3.47,0,0,1,.16-.55c.68-1.46.47-2.34-1-3.11a1.8,1.8,0,0,1-1-1.77,57,57,0,0,0-.48-7.82c-.5-3,1.59-5.84,4.8-7.4,4.36-2.12,9.37,1.3,10.65,4.69.42.74.61,1.58,1,2.35v0c.47,1.93,1.22,3.82.79,5.88-.05.22,0,.47-.2.65s-.29.4-.56.31-.19-.31-.18-.49a15.25,15.25,0,0,0-.86-4.18A5.64,5.64,0,0,0,229,49c-.45-.17-1-.51-1.15.36-.07.41-.37.47-.7.46a9.08,9.08,0,0,1-1.28-.11c-4.23-.85-7.42,2.54-6.33,6.76a9.62,9.62,0,0,0,1.28,3.13,2.45,2.45,0,0,1,.24,3C220.35,63.69,219.4,63.1,218.51,62.91Z" transform="translate(-12.99 -41.05)"/><path class="cls-3" d="M231.9,86.68c.92,1.61.22,3.89,2.22,5.1a1.08,1.08,0,0,1,0,1.75c-1.56.93-1.3,2.34-1.3,3.72.33.59.49,1.25,1.43,1.28.6,0,.73.63.57,1.18a9.67,9.67,0,0,1-.8,1.94,3.23,3.23,0,0,0-.13,2.93,5.48,5.48,0,0,1,.3,3.76,2.88,2.88,0,0,0,.19,1.82,6.56,6.56,0,0,1-.15,5H234c-.58-4.35-.73-8.73-1.18-13.09-.22-2.13-.17-4.3-.6-6.42a1.62,1.62,0,0,1,.71-1.81c1-.74,1-1.61-.06-2.38a2.43,2.43,0,0,1-1.15-1.93c-.05-2-.25-4.06-.49-6.08a4.06,4.06,0,0,1,.47-2.79,1.09,1.09,0,0,1,0-.18,26,26,0,0,0,2.76-6.52,6.85,6.85,0,0,0-.11-4c-.14-.61-.58-1.13-.54-1.79A12.31,12.31,0,0,0,232,64.86c-.14-.23-.35-.41-.31-.7a.87.87,0,0,0-.66-.55c.15,1.2.3,2.41-.94,3.15-1.22.9-1.84-.18-2.6-.78q-.67-2.84-1.34-5.68a2.13,2.13,0,0,1,1.35-2.74c.93-.35,1.76,0,2.35,1.12.25.62.27,1.28.48,1.91.33,1,.32,1,1.14.18a7.88,7.88,0,0,0,.72,2.89,2.62,2.62,0,0,0,2.34,1.62c.08.06.1.11.08.17s-.05.08-.08.08a1.06,1.06,0,0,0-.47,1.66,7.66,7.66,0,0,1,1.29,3.26c0,.21.35.39.51.6.29.38.38.85,0,1.15-.72.52-.66,1.13-.46,1.86s-.39,1.37-.62,2-.47,1.18-.65,1.78a4.27,4.27,0,0,1-1.3,2.28,2,2,0,0,0-.63,1.69,16.91,16.91,0,0,1-.23,4.2A.49.49,0,0,1,231.9,86.68Z" transform="translate(-12.99 -41.05)"/><path class="cls-3" d="M232.14,63.66a3.56,3.56,0,0,1-.73-2.69c-.32.39-.08,1-.62,1s-.53-.58-.58-1a8,8,0,0,1-.41-2.28c.68.63.33,1.65.84,2.33.13,0,.25-.06.26-.1a39.77,39.77,0,0,1,1.47-5.47c.26-.81-.41-1.64-.5-2.49-.06-.51-.16-1-.24-1.5a10.2,10.2,0,0,1,1.06,4.62c.85-.68.71-1.54.71-2.33,0-1.53-.65-3-.76-4.46a9.65,9.65,0,0,1,.89,6.28c-.25,1-1.18,1.62-1.41,2.73A9.8,9.8,0,0,0,232.14,63.66Z" transform="translate(-12.99 -41.05)"/><path class="cls-24" d="M128.7,98.66a4.61,4.61,0,0,0-.34,3.16,3.67,3.67,0,0,1,.09,1.05c0,5.87,0,11.73,0,17.6,0,.48.24,1.19-.38,1.35a3.58,3.58,0,0,1-2.52.16c-.35-.17-.36-.48-.36-.8,0-.54,0-1.09,0-1.64a87.19,87.19,0,0,0-.89-12.81,36.08,36.08,0,0,0-1.37-5.72,11.65,11.65,0,0,1-.6-4.34c.07-.8.41-1,1.05-.75a23.16,23.16,0,0,0,4,.89,1.44,1.44,0,0,1,1.37,1.86Z" transform="translate(-12.99 -41.05)"/><path class="cls-16" d="M130.14,99.61a.58.58,0,0,0-.26.48c0,.39.11.89-.55.92s-.58-.54-.64-1,0-.93,0-1.4h0c.58-.46.45-1.12.47-1.72s0-1,.62-1.26a.89.89,0,0,1,1.07.18,1.27,1.27,0,0,1-.06,1.42C130.41,98,130.62,98.91,130.14,99.61Z" transform="translate(-12.99 -41.05)"/><path class="cls-16" d="M130.58,92.79c.48-.05.38-1.06,1-.71s0,.85,0,1.29-.32.69-.78.59-.24-.53-.23-.83c0-.11,0-.23,0-.34Z" transform="translate(-12.99 -41.05)"/><path class="cls-19" d="M140.68,157.39a17.4,17.4,0,0,1-1.75,2.6c-.37.43-.68.52-1.15.08-2.14-1.95-4.3-3.86-6.45-5.78a1.51,1.51,0,0,1-.56-1.23c0-2.31,0-4.62.06-6.92.4-.43.93-.36,1.42-.38a43.89,43.89,0,0,0,4.44-.13c.85-.12,1.34.27,1.29,1.19,0,.47,0,.94,0,1.4-.07,2.87,1.12,5.35,2.43,7.78C140.66,156.46,141,156.85,140.68,157.39Z" transform="translate(-12.99 -41.05)"/><path class="cls-4" d="M137.89,148.42c0-2.39,0-2.4-2.39-2.37-1.56,0-3.11.06-4.67.09l-.26,0c-.07-.83.27-1.15,1.14-1.17a34,34,0,0,0,5.43-.19c1-.19.54.84.94,1.16a11.71,11.71,0,0,1,0,2.58C138,148.56,137.92,148.54,137.89,148.42Z" transform="translate(-12.99 -41.05)"/><path class="cls-25" d="M128.68,157.1c-.18.69.39,1.73-.29,2.05s-1.18-.79-1.81-1.18c-.87-.53-.94-1.21,0-1.8.63-.42,1.19-1.49,1.83-1.22S128.52,156.35,128.68,157.1Z" transform="translate(-12.99 -41.05)"/><path class="cls-12" d="M129.87,156.84c.13-.58-.35-1.6.24-1.86s1.12.74,1.7,1.15c.8.58,1.11,1.2,0,1.81-.63.34-1.15,1.41-1.68,1.17s-.14-1.35-.27-2.05Z" transform="translate(-12.99 -41.05)"/><path class="cls-16" d="M137.89,148.42l.19.07a18,18,0,0,0,2.84,8c-.12.3.17.7-.24.93-.06-1.39-1.18-2.3-1.58-3.55C138.53,152.07,137.58,150.39,137.89,148.42Z" transform="translate(-12.99 -41.05)"/><path class="cls-4" d="M123.76,146.11a18.58,18.58,0,0,1-5.66-.43A31.53,31.53,0,0,1,123.76,146.11Z" transform="translate(-12.99 -41.05)"/><path class="cls-4" d="M117.65,145.65c-1.13-.38-.73-1.16-.49-1.89C117.21,144.42,117.09,145.12,117.65,145.65Z" transform="translate(-12.99 -41.05)"/><path class="cls-4" d="M82.43,126.42a1.73,1.73,0,0,0-.28,1.23q0,8.16,0,16.32c0,.48,0,.95.54,1.16l-.1.15a1.5,1.5,0,0,1-1.19.08.47.47,0,0,1-.24-.24l.06-8.63a2.06,2.06,0,0,1-.32-1.43,23.88,23.88,0,0,0-.15-4.23c-.17-.12-.43-.07-.56-.29s-.07-.44.1-.63h0c.39-.66.23-1.43.49-2.11.21-.53-.43-.41-.52-.7C81.14,127.41,81.66,126.53,82.43,126.42Z" transform="translate(-12.99 -41.05)"/><path class="cls-3" d="M82.62,93c.08-.77-.47-1.5-.15-2.27.09-.2.12-.49.41-.51s.36.25.4.47c.11.61.23,1.21.31,1.82,0,.29.15.67-.19.84s-.5-.27-.78-.35Z" transform="translate(-12.99 -41.05)"/><path class="cls-3" d="M138.13,145.4l0-2.1c.15-.05.36-.18.42-.13.55.43.19,1,.27,1.56S138.63,145.46,138.13,145.4Z" transform="translate(-12.99 -41.05)"/><path class="cls-3" d="M138.58,149.34a3.53,3.53,0,0,1-.13-2.14A2.17,2.17,0,0,1,138.58,149.34Z" transform="translate(-12.99 -41.05)"/><path class="cls-4" d="M222.74,211.93c-.83,0-1.53.56-2.42.46a13.09,13.09,0,0,1-2.79-.44,10.4,10.4,0,0,1-2.15-1.39c-.33-.57-.39-.85.44-1.16,2-.73,3.87-1.68,5.79-2.54.26-.12.57-.21.78,0,.86.79,1.65.21,2.45-.09l.12-.13a10,10,0,0,1,1.95-.52,2,2,0,0,1,.35-.09,6,6,0,0,1,1.85,0c.54.12.75.45.31.91s-.69.83-1,1.25A12.58,12.58,0,0,1,222.74,211.93Z" transform="translate(-12.99 -41.05)"/><path class="cls-26" d="M231.87,205.34h-.67a28.78,28.78,0,0,0-6.08.2,44.18,44.18,0,0,1,5.74-2.44c-.23,2.2,1.5,1.28,2.5,1.59C233.08,205.49,232.39,205.21,231.87,205.34Z" transform="translate(-12.99 -41.05)"/><path class="cls-3" d="M231,205.54l-1,1.16a1,1,0,0,0-1.07-.68,8.94,8.94,0,0,0-1.93.24h0a11.92,11.92,0,0,0-2.11.48h0c-.35-.1-.76.13-1.24-.23C226,205.33,228.51,205.61,231,205.54Z" transform="translate(-12.99 -41.05)"/><path class="cls-3" d="M234.48,65.53v-.25c3.4.41,6.83.65,10.08,1.86a1.25,1.25,0,0,1,.77.49,31.91,31.91,0,0,0-6.18-1.45,9.11,9.11,0,0,0-1.38-.16.32.32,0,0,1-.47,0A8.75,8.75,0,0,0,234.48,65.53Z" transform="translate(-12.99 -41.05)"/><path class="cls-27" d="M232.65,49.3a5.49,5.49,0,0,1-1-2.35A3.87,3.87,0,0,1,232.65,49.3Z" transform="translate(-12.99 -41.05)"/><path class="cls-3" d="M84,187.48,85,190.3a17.91,17.91,0,0,1,0,2.74c-1,.43-2.09.4-3,1a3.11,3.11,0,0,1-3.41-1c-.37-1.11.56-1.93.68-2.94a5.11,5.11,0,0,0,.19-1.69.79.79,0,0,1-.07-.73,1.77,1.77,0,0,0,.15-.31c.58-1.87,2-2.47,3.69-1.58C83.79,186.14,83.7,186.93,84,187.48Z" transform="translate(-12.99 -41.05)"/><path class="cls-3" d="M175,157.81c-.13.42.37,1.32-.27,1.51s-.89-.72-1.26-1.19c-.24-.3-.74-.65-.43-1.1a3.77,3.77,0,0,1,1.52-1.39c.3-.14.43.23.44.52C175,156.66,175,157.17,175,157.81Z" transform="translate(-12.99 -41.05)"/><path class="cls-28" d="M189.77,158.39a1.38,1.38,0,0,1,1,.91c.11.55-.56.67-.93.81s-.49-.29-.5-.62S189.27,158.62,189.77,158.39Z" transform="translate(-12.99 -41.05)"/><path class="cls-29" d="M78.43,67.73c1.32-.45,1.93-.08,2.13,1.16.13.82.83,1.43.69,2.42-.17,1.31,0,1.32-1.2.7l-.42-.21C77.22,70.25,77.36,70.81,78.43,67.73Z" transform="translate(-12.99 -41.05)"/><path class="cls-30" d="M79.36,187.74l0,.67a.62.62,0,0,0-.23,0c-.16-.94.36-1.84.11-2.78C80.22,186.3,79.63,187,79.36,187.74Z" transform="translate(-12.99 -41.05)"/><path class="cls-3" d="M227,206.26a3.77,3.77,0,0,1,2.18-.49c.61,0,1,.26.82.93-.62.39-.86,1.18-1.56,1.49l.12-.33c.17-.56,1.13-.92.86-1.37s-1.21-.13-1.84-.18Z" transform="translate(-12.99 -41.05)"/><path class="cls-4" d="M79.36,187.74c-.1-.68.6-1.42-.14-2.06a31.09,31.09,0,0,1,.54-8.34c.46.37.32.9.35,1.38s-.11.73.33.92a2.65,2.65,0,0,1-.07,1.82,7.73,7.73,0,0,0-.06,3.65c.68-.42.55-1,.55-1.42,0-2,0-4.05,0-6.08a5.91,5.91,0,0,1,.09-1.39c0-.18.16-.33.11-.53,0,.24-.14.34-.38.25a.77.77,0,0,1-.15-.77c.85-2.23.22-4.55.44-6.4,0,1.21,0,2.84,0,4.46,0,.63,0,1.23-.7,1.56a21.23,21.23,0,0,1,.2-3.38,84,84,0,0,0-.4-10.4c0-.29-.2-.71.29-.73s.39.41.43.71a15.15,15.15,0,0,0,.11,2.77c.36,0,.28-.28.28-.44,0-3.28.21-6.58,0-9.84-.18-2.38-.11-4.75-.21-7.12,0-.42-.11-.87.21-1.24l.13.12a2.74,2.74,0,0,1,.27,1.71c0,1.37,0,2.73,0,4.1a1.37,1.37,0,0,0,.65,1.4.75.75,0,0,1,.24.32c-.45.36-.3.86-.3,1.31q0,15,0,30c0,.76-.09,1.38,1,1.55.74.11.82,1.1.85,1.84-1.14-1.76-1.5-1.9-3.12-1.65-.79.12-1.09.46-1.1,1.21C79.8,187.35,79.79,187.68,79.36,187.74Z" transform="translate(-12.99 -41.05)"/><path class="cls-4" d="M80.73,130.39c.79-.3.47.39.47.61,0,1.83,0,3.66,0,5.49-.73.37-.67,1.1-.68,1.7-.06,6.12-.79,12.22-.49,18.35,0,.71.11,1.42.19,2.33a3.15,3.15,0,0,1-1.15-2.51,48.05,48.05,0,0,1,0-9.29c.38-4.45.4-8.93,1-13.37A24.07,24.07,0,0,0,80,131c0-.38-.13-.8.24-1.1l0,.71a13.42,13.42,0,0,1-.1,5.43,7.77,7.77,0,0,0-.17,1.86,47.15,47.15,0,0,1-.45,7.22c0,3.34-.33,6.68,0,9.34-.25-2.65,0-6,0-9.3a54.73,54.73,0,0,0,.46-6.77c0-2.5.66-5,.48-7.47A1,1,0,0,1,80.73,130.39Z" transform="translate(-12.99 -41.05)"/><path class="cls-3" d="M80.25,179.46c-.37.2-.44,0-.45-.33,0-.59,0-1.19,0-1.79l.52-2.55a2.46,2.46,0,0,0,.44-1.87c0-1.81,0-3.62,0-5.43h.54a29.5,29.5,0,0,0,0,3.12c.2,1.84-.37,3.58-.5,5.37A6.16,6.16,0,0,1,80.25,179.46Z" transform="translate(-12.99 -41.05)"/><path class="cls-31" d="M80.77,127.81c-.07.72.18,1.52-.49,2.11A4.16,4.16,0,0,1,80.77,127.81Z" transform="translate(-12.99 -41.05)"/><path class="cls-4" d="M82.68,145.13c.45.27.41.71.41,1.14,0,1.76,0,3.52,0,5.28,0,.52,0,1.06-.63,1.22l-.12-.14c-.14-2.24-.06-4.48,0-6.72a1,1,0,0,1,.23-.65Z" transform="translate(-12.99 -41.05)"/><path class="cls-32" d="M89.57,100c.39,0,.6.31.92.42.63.23,1.26.13,1.45-.55.42-1.53,1.18-3.11-.12-4.61-.13-.14-.3-.32-.09-.5s.42,0,.62.1a2.15,2.15,0,0,1,1,2A22.25,22.25,0,0,1,93,100.7c-.34,1.16-1.15,1.84-1.92,1.68A3,3,0,0,1,89.57,100Z" transform="translate(-12.99 -41.05)"/><path class="cls-2" d="M233.8,68.11a3.64,3.64,0,0,1,.69,1.63c.76,1.94.23,3.8-.32,5.66a25.88,25.88,0,0,1-2.47,5.21h0c-.29,0-.51.08-.55-.35a18.66,18.66,0,0,1-.38-2.64c.08-2.31-.46-4.57-.52-6.86a11.23,11.23,0,0,0-.15-1.63c-.19-1-.3-1.93.81-2.53.6-.33.48-1,.59-1.64C232.61,65.81,232.73,67.31,233.8,68.11Z" transform="translate(-12.99 -41.05)"/><path class="cls-33" d="M232.05,92.58c.23-.37-.23-1,.41-1a1,1,0,0,1,.85,1.11.9.9,0,0,1-.86.94C231.78,93.56,232.33,92.88,232.05,92.58Z" transform="translate(-12.99 -41.05)"/><path class="cls-3" d="M230,66.76c1.37-1.06.7-2.58.82-4,.33.45.76.78.78,1.35-.8-.17-.42.47-.43.71C231.2,65.76,231,66.47,230,66.76Z" transform="translate(-12.99 -41.05)"/><path class="cls-3" d="M234.24,115.12c.07-1.15.14-2.29.22-3.43a1.55,1.55,0,0,0-.29-1.33,1.85,1.85,0,0,1-.34-2,5.38,5.38,0,0,0-.38-4,2.91,2.91,0,0,1,.17-2.69,19.38,19.38,0,0,0,1-2.12c.22-.51,0-1-.51-.88-1.65.49-1.2-.66-1.25-1.46.53-.43.47-1,.47-1.62s.25-1.16,1.08-.77.88,0,1.08-.67c.26-.87,1.1-1.34,1.75-1.93.36.42,0,.52-.06.72a4.15,4.15,0,0,0-.23,1.7c.27.85,1,0,1.53.21a10.24,10.24,0,0,0,2.53.24c.73.05,1.46.48,2.09-.45a2.51,2.51,0,0,1,1.87-.31c.49.13,1,0,1.11-.41.57-1.91,2.16-2.33,3.8-2.63,1.45-.26,2.5-1.34,3.89-1.72.81-.23,1.54-.69,1.63.71,0,.53.47.85,1.07.9a4.62,4.62,0,0,1,1.48.28c.4.17,1-.14,1.21.48a5.72,5.72,0,0,1,.35,2.77c0,.27-.46.4-.8.34s-.61-.15-.91-.18A3.06,3.06,0,0,0,254.12,97a3.5,3.5,0,0,1-3.84,1.64c-1.16-.28-2.46-.69-3.48.48-.35.41-.6,0-.9-.12-1.32-.71-2.23-.17-2.25,1.33,0,.63,0,1.25,0,1.88,0,.16-.07.38,0,.46,1.71,1.62.08,3.52.44,5.26.09.41,0,.85.51,1.07s.63.8.16,1.18a1.33,1.33,0,0,0-.35,1.77,1.35,1.35,0,0,1,0,1.13c-.07.17-.14.49-.06.56,1.05.86.33,2,.44,2.95,0,.23,0,.56.14.67,1.51,1.24.27,2.57.16,3.86,0,.19-.1.42,0,.57a6.31,6.31,0,0,1,.3,4.88c-.16.59.4,1.15.94,1.36s.6.71.59,1.21c0,.2,0,.41-.25.48s-.36-.07-.47-.24-.27-.72-.76-.55a.59.59,0,0,0-.38.66c0,.5,0,1.23.53,1.3,1.26.17.67,1,.39,1.26-.76.62-.05,1,.12,1.36.35.82.53,0,.78-.11a.32.32,0,0,1,.42.1.74.74,0,0,1,0,.78,12,12,0,0,0-.75,2.08c-.24.54-.12.9.5,1,1,.23,1,.91.59,1.6a2.43,2.43,0,0,0,.4,3.25c.42.41.28.81.06,1.26a2.81,2.81,0,0,0,.41,3.43c.44.47.26.89,0,1.36-.74,1.28-.62,1.85.42,3A1.36,1.36,0,0,1,249,153a1.8,1.8,0,0,0,.42,2.8.59.59,0,0,1,.17.89c-.07.13-.31.21-.32.32a15.35,15.35,0,0,1-.93,4.06.49.49,0,0,0,.38.65c1.75.22,1.14,1.62.93,2.38a6.89,6.89,0,0,0,.38,3.62c.12.52.28.79-.32,1a2.27,2.27,0,0,0-.71.61c-.26.26-.19.55,0,.86s.38.28.68.21c.72-.16,1.17-.2.65.82a2.24,2.24,0,0,0,.5,3.06c.61.48.41,1.12.17,1.7a6.46,6.46,0,0,1-.69,1.23c-.54.75-.63,1.35.29,1.91.68.42.15,1,0,1.44-.09.22-.5.59-.15.62,1.18.1.7.94.75,1.49.07.78,0,1.57,0,2.35a1.6,1.6,0,0,0,.18.89c1.34,1.63.9,3.36.29,5.07a4.7,4.7,0,0,0,0,1.83,21.27,21.27,0,0,0,.66,4,1.48,1.48,0,0,1-.05.86c-.21.61-.51,1.44.75,1.18.21-.05.46,0,.45.23,0,.84-1,1-1.26,1.75-.15.44-.59,0-.87-.13s-.36-.52-.67-.27-.14.55,0,.85.42.51.07.71-.41-.18-.56-.4a1.28,1.28,0,0,0-.45-.34c-.39-.21-1,.08-1.19-.55a8.44,8.44,0,0,1-.29-2.28,1.78,1.78,0,0,0-2.11-2.05,3.62,3.62,0,0,1-.93,0c-1-.13-1.37-.69-1-1.64a17.17,17.17,0,0,0,.51-3.58c.39-2.08-.94-3.88-.48-6a6.14,6.14,0,0,0-.17-2.8c-.25-.78-.92-1.4-1.06-2.33-.07-.45-.25-.75.14-1.1a.65.65,0,0,0,.19-.85c-.21-.34-.48,0-.72.06s-.54.31-.73,0,0-.58.33-.75.76-.72.25-1c-1.66-.87-1.2-2.55-1.61-3.88-.13-.43-.18-.91-.33-1.35-.25-.7-.88-1.32-.2-2.14.18-.23,0-.66-.24-.86-.78-.75-.37-1.84-.82-2.68-.17-.31.13-.43.35-.61.77-.67.68-1.13-.27-1.39-.37-.1-.32-.35-.41-.6-.41-1.19-.41-2.45-.7-3.66-.07-.3-.08-.72-.28-.87-.75-.6-.81-1.12-.33-2,.27-.5-.53-1-.92-1.49a1.16,1.16,0,0,0-1.52-.1c-.78.5-.92.19-1-.56a9.48,9.48,0,0,1,.33-3.7c.25-.67.61-1.83,1.86-1.64.32,0,.7-.14.42-.39-1.17-1.07-.27-2,.07-3a2,2,0,0,0,.12-1.37,3.21,3.21,0,0,1,.11-2.44A3.31,3.31,0,0,0,237,139c-.75-1.25-.34-2.5-.32-3.73a6.26,6.26,0,0,0-.8-3.74c-.42-.66-.15-1.45-.15-2.18,0-.12.18-.35.25-.33,1.86.27,1.14-1.19,1-1.83a9.94,9.94,0,0,1,.32-3.09,14.61,14.61,0,0,0-.22-6.7c-.46-1.48-1.73-1.61-2.84-2.09A1.62,1.62,0,0,1,234.24,115.12Z" transform="translate(-12.99 -41.05)"/><path class="cls-34" d="M185.11,113.24h.22l0,9.92c0,1.32,0,1.32-1.16.68l-.5-.27c1.15.17,1.46-.36,1.43-1.46C185.07,119.15,185.11,116.2,185.11,113.24Z" transform="translate(-12.99 -41.05)"/><path class="cls-3" d="M170.08,126.84c0-.2.1-.43.31-.43a16.56,16.56,0,0,1,4.39.2c0,1.33,0,2.66,0,4,0,.22.07.5-.17.63s-.5-.14-.67-.32C172.66,129.56,171.38,128.2,170.08,126.84Z" transform="translate(-12.99 -41.05)"/><path class="cls-3" d="M231.9,86.68V86a1.24,1.24,0,0,0,.71-1.36,1.4,1.4,0,0,1,.4-1.29c.28-.24.26-.47,0-.79a1.69,1.69,0,0,1,.8-2.61c.67-.2.89-.34.72-1.09A1.61,1.61,0,0,1,236.1,77c.45,0,.67-.13.71-.54s-.33-.52-.7-.56c-.18,0-.51-.16-.5-.22.13-.93,0-2,.53-2.73s1-.75.66-1.64c-.19-.52.16-1.15-.13-1.77-.19-.4.34-.55.66-.64.93-.25,2.15.5,2.78-.85.07-.16.51.09.67.31.43.62.76.63,1.26,0s1.27-.76,1.8.06a.79.79,0,0,0,.74.43c.26,0,.59,0,.66.32s-.17.5-.44.62c-.7.32-1,.68-.18,1.23a.56.56,0,0,1,.15.41c0,.36-.71.73-.25,1a1.51,1.51,0,0,0,1.51-.25c.5-.43.81-.51,1.17.1.18.31.43.2.69,0s.51-.39.84-.11.26.6.08.93a.47.47,0,0,0,0,.55c.81,1.08.67,2.44,1.05,3.64.09.3.24.73.1.91-.81,1.1,0,1.93.38,2.84.09.21.22.42.29.64.42,1.48.06,2.12-1.43,2.74a32.45,32.45,0,0,1-4.4,1.47c-1.15.3-1.35.14-1.19-1,0-.44-.22-.61-.55-.79s-.66,0-.69.32c-.07.71-.85.63-1.13,1.15,0,.42,1,.11.69.75-.19.43-.7.41-1,.6-1.32.76-2.78.44-4.14.78-.88.22-1.13,1.16-1.48,1.85-.28.53.36.82.87,1,.29.1.65.31.55.65s-.57,0-.79.15c-1.56.68-1.69-1.06-2.58-1.51-.48-.24,0-.44.28-.58s.58-.32.54-.69-.34-.36-.62-.43C232.75,87.9,232.71,86.84,231.9,86.68Z" transform="translate(-12.99 -41.05)"/><path class="cls-3" d="M244.72,88.72c-.48.38-1.09.71-.7,1.48,0,.09-.13.38-.28.46a4.18,4.18,0,0,1-3.32.62,1,1,0,0,1-.83-1c0-.52.51-.4.78-.5.9-.34,1.7-1.06,2.83-.57C243.67,89.42,243.89,88.2,244.72,88.72Z" transform="translate(-12.99 -41.05)"/><path class="cls-4" d="M239.34,93.38a63.08,63.08,0,0,1,10.49-3.52A66.3,66.3,0,0,1,239.34,93.38Z" transform="translate(-12.99 -41.05)"/><path class="cls-3" d="M250.18,86.82a.49.49,0,0,1,.62-.12c.92.37,1.6.47,1.68-.86a.38.38,0,0,1,.74,0,1.91,1.91,0,0,0,.93,1.23C252.44,88.18,251.62,88.12,250.18,86.82Z" transform="translate(-12.99 -41.05)"/><path class="cls-3" d="M237.3,66h.47c.32,1,.54,1.76-1,2.08-1.22.26-1.45-.85-2.25-1.14C235.56,66.78,236.79,67.45,237.3,66Z" transform="translate(-12.99 -41.05)"/><path class="cls-3" d="M247.91,87.39c.4,0,.64.06.56.41a1.7,1.7,0,0,1-1.4,1.36c-.31,0-.87-.24-.79-.7C246.45,87.49,247.47,87.77,247.91,87.39Z" transform="translate(-12.99 -41.05)"/><path class="cls-3" d="M251.42,201.85c.69.13,1.14.28,1.14.92,0,.22-.12.44-.32.38C251.66,203,251.63,202.45,251.42,201.85Z" transform="translate(-12.99 -41.05)"/><path class="cls-3" d="M260.42,91.44c-.29,0-.32-.15-.3-.36s.11-.39.36-.3.42.2.43.32C261,91.46,260.59,91.33,260.42,91.44Z" transform="translate(-12.99 -41.05)"/><path class="cls-3" d="M255.49,86.25c.17,0,.3.06.33.24.05.37-.23.47-.49.52a.23.23,0,0,1-.26-.28C255.12,86.51,255.2,86.28,255.49,86.25Z" transform="translate(-12.99 -41.05)"/><path class="cls-4" d="M231.7,80.61c.25-1.28,1.17-2.25,1.63-3.45.92-2.4,1.81-4.78,1.16-7.42a3.09,3.09,0,0,1,.47,2.67A16.41,16.41,0,0,1,231.7,80.61Z" transform="translate(-12.99 -41.05)"/><path class="cls-3" d="M82.54,145.26a63.53,63.53,0,0,1,.09,6.76c0,.2-.19.41-.3.61-.68.15-1.13.06-1.11-.82,0-2.19,0-4.38.06-6.57A2.45,2.45,0,0,1,82.54,145.26Z" transform="translate(-12.99 -41.05)"/><path class="cls-4" d="M80.73,130.39c0,4.85-.47,9.67-.75,14.51,0,.1-.11.19-.16.29-.16-.25-.3.13-.45,0,.31-3.46.25-6.94.74-10.37.21-1.41,0-2.81.2-4.21Z" transform="translate(-12.99 -41.05)"/><path class="cls-3" d="M224.84,206.74a2.93,2.93,0,0,1,2.11-.48A5.5,5.5,0,0,1,224.84,206.74Z" transform="translate(-12.99 -41.05)"/><path class="cls-30" d="M80.25,179.46a13.35,13.35,0,0,1,.53-3.49l.45-.8v3c0,2.11,0,4.22,0,6.33,0,.63-.1,1.07-.87,1.06s-.52-.6-.58-1C79.57,182.82,80.31,181.18,80.25,179.46Z" transform="translate(-12.99 -41.05)"/><path class="cls-3" d="M79.37,145.2c.15,0,.29-.63.45,0v11.56h-.33A67.5,67.5,0,0,1,79.37,145.2Z" transform="translate(-12.99 -41.05)"/><g id="Page-1"><g id="Artboard"><g id="Neighbors-Music-Logo"><path id="Combined-Shape" class="cls-35" d="M156.61,131.33l13.49,9.82h-3.49v15.42a4.26,4.26,0,0,1-1.4,2.68,4.31,4.31,0,0,1-2.88,1,5.31,5.31,0,0,1-3.49-1.27,3.93,3.93,0,0,1,0-6.06,5.3,5.3,0,0,1,3.49-1.26,6.7,6.7,0,0,1,.79,0h0V141.15H151.38V154a4.23,4.23,0,0,1-1.4,2.68,4.33,4.33,0,0,1-2.89,1,5.27,5.27,0,0,1-3.48-1.26,3.91,3.91,0,0,1,0-6.06,5.23,5.23,0,0,1,3.48-1.27,5,5,0,0,1,.79.06h0v-8h-4.75l4.75-3.46v-2.58h3.55Zm4.66,17.15a.88.88,0,0,1,.62.26.86.86,0,0,1,.26.63.84.84,0,0,1-.26.63.89.89,0,0,1-1.51-.63.9.9,0,0,1,.26-.63A.88.88,0,0,1,161.27,148.48Z" transform="translate(-12.99 -41.05)"/></g></g></g></svg>