<?xml version="1.0" encoding="UTF-8"?>
<svg width="82px" height="84px" viewBox="0 0 82 84" version="1.1" xmlns="http://www.w3.org/2000/svg" xmlns:xlink="http://www.w3.org/1999/xlink">
    <title>Neighbors Music Logo</title>
    <g id="Page-1" stroke="none" stroke-width="1" fill="none" fill-rule="evenodd">
        <g id="Artboard" transform="translate(-39.000000, -24.000000)" fill="#D9E4EE" stroke="#1E3F66" stroke-width="0.9">
            <g id="Neighbors-Music-Logo" transform="translate(39.000000, 24.000000)">
                <path d="M41.9111068,0.556829161 L80.6184676,28.7673419 L70.6159932,28.7669839 L70.6166662,73.0124369 C70.1861407,76.094102 68.8084288,78.8097293 66.5946266,80.7112985 C64.5251048,82.4889365 61.728493,83.55 58.3111111,83.55 C54.4024423,83.55 50.8618793,82.164332 48.2997481,79.9177124 C45.7604407,77.6911061 44.1833333,74.6169632 44.1833333,71.2173913 C44.1833333,67.8178194 45.7604407,64.7436765 48.2997481,62.5170702 C50.8618793,60.2704506 54.4024423,58.8847826 58.3111111,58.8847826 C59.1024008,58.8847826 59.8604314,58.9415676 60.5838217,59.0509991 L60.5838217,59.0509991 L60.5829876,28.767 L26.8829959,28.767 L26.883333,65.7080868 C26.4527931,68.7897652 25.0750778,71.5053906 22.8612801,73.4069559 C20.7917589,75.1845934 17.9951519,76.2456522 14.5777778,76.2456522 C10.669109,76.2456522 7.12854601,74.8599842 4.56641479,72.6133646 C2.02710741,70.3867583 0.45,67.3126154 0.45,63.9130435 C0.45,60.5134716 2.02710741,57.4393287 4.56641479,55.2127223 C7.12854601,52.9661028 10.669109,51.5804348 14.5777778,51.5804348 C15.3692964,51.5804348 16.1275367,51.6372526 16.8511162,51.7467463 L16.8511162,51.7467463 L16.8499777,28.7669879 L3.20374967,28.7673542 L16.85,18.8218669 L16.85,11.4064993 L27.0245897,11.4059927 L41.9111068,0.556829161 Z M55.2696075,49.8065217 C55.9730712,49.8065217 56.6098948,50.0923344 57.0708808,50.5542981 C57.5322115,51.0166073 57.8174691,51.6553039 57.8174691,52.3607414 C57.8174691,53.0661789 57.5322115,53.7048755 57.0708808,54.1671847 C56.6098948,54.6291484 55.9730712,54.9149611 55.2696075,54.9149611 C54.5661439,54.9149611 53.9293203,54.6291484 53.4683343,54.1671847 C53.0070036,53.7048755 52.721746,53.0661789 52.721746,52.3607414 C52.721746,51.6553039 53.0070036,51.0166073 53.4683343,50.5542981 C53.9293203,50.0923344 54.5661439,49.8065217 55.2696075,49.8065217 Z" id="Combined-Shape"></path>
            </g>
        </g>
    </g>
</svg>