<?xml version="1.0" encoding="UTF-8"?>
<svg width="159px" height="159px" viewBox="0 0 159 159" version="1.1" xmlns="http://www.w3.org/2000/svg" xmlns:xlink="http://www.w3.org/1999/xlink">
    <title>Artboard</title>
    <g id="Artboard" stroke="none" stroke-width="1" fill="none" fill-rule="evenodd">
        <g id="Group-Copy-2" transform="translate(67.000000, 66.000000)">
            <path d="M21.105682,4.31947035 C21.3772237,4.31947035 21.5973518,4.5377639 21.5973518,4.81948667 L21.5973518,23.2570706 C21.5973518,23.533222 21.3694165,23.7570869 21.105682,23.7570869 L0.491669735,23.7570869 C0.220128038,23.7570869 0,23.5387934 0,23.2570706 L0,4.81948667 C0,4.54333528 0.227935248,4.31947035 0.491669735,4.31947035 L21.105682,4.31947035 Z M20.0174679,2.15973518 C20.2936193,2.15973518 20.5174842,2.38874732 20.5174842,2.66173268 L20.5174842,2.73760526 C20.5174842,3.01485083 20.2991906,3.23960277 20.0174679,3.23960277 L1.5798839,3.23960277 C1.30373252,3.23960277 1.07986759,3.01059062 1.07986759,2.73760526 L1.07986759,2.66173268 C1.07986759,2.38448712 1.29816113,2.15973518 1.5798839,2.15973518 L20.0174679,2.15973518 Z M18.9391566,0 C19.2144485,0 19.4376166,0.229012141 19.4376166,0.501997505 L19.4376166,0.577870083 C19.4376166,0.85511565 19.2191603,1.07986759 18.9391566,1.07986759 L2.65819517,1.07986759 C2.38290332,1.07986759 2.15973518,0.850855447 2.15973518,0.577870083 L2.15973518,0.501997505 C2.15973518,0.224751939 2.37819144,0 2.65819517,0 L18.9391566,0 Z" id="Library--Copy-2" fill="#FFFFFF"></path>
            <g id="Search-Copy-2" transform="translate(3.239603, 5.399338)" fill="#73A6C6" stroke="#73A6C6" stroke-width="2">
                <path d="M9.26868303,1 C11.3848236,1 13.5009641,1.8072804 15.1155249,3.42184119 C16.5186578,4.82497414 17.3122592,6.60688905 17.4958695,8.43850877 C17.7039204,10.5139371 17.1299219,12.6533538 15.7717423,14.3771208 L15.7717423,14.3771208 L22.8349235,21.4403019 L21.4403019,22.8349235 L14.375593,15.7702146 C12.6530125,17.1293874 10.5137921,17.7038072 8.43828912,17.4958075 C6.60690097,17.312272 4.8249791,16.5186628 3.42184119,15.1155249 C1.8072804,13.5009641 1,11.3848236 1,9.26868303 C1,7.15254251 1.8072804,5.03640198 3.42184119,3.42184119 C5.03640198,1.8072804 7.15254251,1 9.26868303,1 Z" id="Combined-Shape"></path>
            </g>
            <g id="Search-Copy" transform="translate(2.159735, 4.319470)">
                <circle id="Oval" stroke="#FFFFFF" stroke-width="2" transform="translate(10.690144, 10.690144) rotate(-45.000000) translate(-10.690144, -10.690144) " cx="10.6901437" cy="10.6901437" r="6.55907312"></circle>
                <polygon id="Rectangle" fill="#73A6C6" transform="translate(18.814822, 18.888949) rotate(-315.000000) translate(-18.814822, -18.888949) " points="14.4953512 16.1892798 23.1342919 16.1892798 23.1342919 21.5886178 14.4953512 21.5886178"></polygon>
                <path d="M18.0879501,14.3882812 L19.3275529,14.3882812 C19.8798377,14.3882812 20.3275529,14.8359964 20.3275529,15.3882812 L20.3275529,22.0272219 C20.3275529,22.5795066 19.8798377,23.0272219 19.3275529,23.0272219 L18.0879501,23.0272219 C17.5356654,23.0272219 17.0879501,22.5795066 17.0879501,22.0272219 L17.0879501,15.3882812 C17.0879501,14.8359964 17.5356654,14.3882812 18.0879501,14.3882812 Z" id="Rectangle" fill="#FFFEFE" transform="translate(18.707752, 18.707752) rotate(-45.000000) translate(-18.707752, -18.707752) "></path>
                <path d="M14.6661951,8.20008898 C14.6661951,7.00730018 13.6992488,7.64705582 12.50646,7.64705582 C11.3136712,7.64705582 10.3467248,5.94351535 10.3467248,7.13630415 C10.3467248,8.32909295 14.6661951,9.39287779 14.6661951,8.20008898 Z" id="Oval" fill="#FFFEFE" transform="translate(12.506460, 7.717326) rotate(-158.000000) translate(-12.506460, -7.717326) "></path>
            </g>
        </g>
    </g>
</svg>